<svg width="139" height="24" viewBox="0 0 139 24" fill="none" xmlns="http://www.w3.org/2000/svg">
<rect x="0.5" width="24" height="24" rx="8" fill="#3861FB"/>
<path fill-rule="evenodd" clip-rule="evenodd" d="M16.7283 4.98745C16.3212 5.07522 15.8794 5.38468 15.6747 5.72553C15.2982 6.3525 15.3349 7.07545 15.7727 7.65428L15.911 7.83713L15.9432 7.69442C15.9969 7.45608 16.1845 7.24965 16.4635 7.12188L16.6157 7.05225L16.5254 6.94942C16.3832 6.78748 16.3296 6.64099 16.3296 6.4143C16.3296 6.09153 16.4822 5.84068 16.7686 5.69259C16.8871 5.63133 16.9537 5.61728 17.1283 5.6167C17.3124 5.6161 17.3642 5.62785 17.4957 5.69996C17.8004 5.86702 17.9467 6.13573 17.9219 6.48265C17.9072 6.68865 17.8599 6.80299 17.7265 6.95488L17.6401 7.05336L17.7628 7.10882C18.0391 7.2337 18.2998 7.50956 18.2998 7.67705C18.2998 7.7733 18.3363 7.75819 18.434 7.62145C18.7247 7.21473 18.8316 6.67605 18.7134 6.21316C18.5964 5.75471 18.2485 5.32356 17.8386 5.12888C17.4676 4.95271 17.1043 4.90642 16.7283 4.98745ZM6.99369 5.74133C6.38306 5.96473 6.03195 6.62816 6.19677 7.24716C6.24349 7.42265 6.3678 7.65916 6.45772 7.74362L6.52246 7.80445L6.557 7.69979C6.6048 7.5549 6.74026 7.40942 6.90512 7.32588L7.0442 7.25542L6.9674 7.1547C6.85132 7.0025 6.8086 6.80499 6.85395 6.63016C6.93349 6.32345 7.16552 6.15625 7.48352 6.1765C7.69435 6.1899 7.82812 6.26556 7.95023 6.44045C8.019 6.5389 8.02835 6.57879 8.02835 6.77382C8.02835 6.97679 8.02072 7.00619 7.93729 7.12453L7.84623 7.25373L7.99935 7.34016C8.1632 7.43262 8.2904 7.57508 8.32517 7.70505L8.3466 7.78519L8.43655 7.66102C8.62683 7.39833 8.71103 7.00065 8.64432 6.67948C8.56423 6.29396 8.30057 5.96376 7.93575 5.79211C7.76232 5.71051 7.71203 5.7005 7.44263 5.69405C7.2054 5.68833 7.11146 5.69825 6.99369 5.74133ZM16.9756 5.98362C16.7559 6.06382 16.6519 6.23728 16.679 6.4781C16.7247 6.88368 17.2649 7.01513 17.5047 6.67902C17.5566 6.60625 17.5712 6.54805 17.5712 6.4143C17.5712 6.28056 17.5566 6.22236 17.5047 6.14959C17.3859 5.98305 17.1661 5.9141 16.9756 5.98362ZM7.26443 6.4733C7.04632 6.59165 7.04989 6.95699 7.27026 7.07096C7.511 7.19545 7.78549 7.03519 7.78549 6.77013C7.78549 6.51662 7.49237 6.34965 7.26443 6.4733ZM16.7752 7.32899C16.4438 7.42002 16.2048 7.66082 16.2016 7.90705L16.1998 8.04288L16.3569 8.12068C16.5831 8.2327 16.8201 8.28573 17.0945 8.28573C17.3873 8.28573 17.6231 8.22788 17.8806 8.09285L18.0758 7.99053L18.0568 7.88813C17.9905 7.53119 17.5999 7.28216 17.116 7.28828C17.0049 7.2897 16.8516 7.30802 16.7752 7.32899ZM7.12875 7.48456C6.84943 7.58096 6.63203 7.90673 6.77489 8.01482C6.96817 8.16108 7.46489 8.21988 7.76143 8.13159C7.92923 8.08165 8.14255 7.96945 8.13386 7.93573C8.13083 7.92396 8.12835 7.87996 8.12835 7.83799C8.12835 7.7849 8.08946 7.72442 8.00072 7.63936C7.78672 7.43433 7.44835 7.37425 7.12875 7.48456ZM8.69977 8.28573C8.60963 8.37588 8.6284 8.47256 8.76523 8.62268C8.83266 8.69665 9.03986 8.9243 9.22566 9.12859C9.66229 9.60865 9.71503 9.65716 9.80023 9.65716C9.89657 9.65716 9.98549 9.56142 9.98549 9.45765C9.98549 9.38728 9.90032 9.27908 9.49626 8.83622C9.2272 8.5413 8.98689 8.28396 8.96223 8.2643C8.89489 8.21065 8.7642 8.2213 8.69977 8.28573ZM14.6145 8.83196C14.1251 9.3753 14.0972 9.41239 14.1054 9.50962C14.1156 9.63042 14.2173 9.70548 14.3318 9.67673C14.3758 9.66568 14.5944 9.4453 14.9084 9.09548C15.3377 8.61713 15.4141 8.51842 15.4141 8.44188C15.4141 8.32988 15.3381 8.25716 15.221 8.25716C15.142 8.25716 15.0762 8.31953 14.6145 8.83196ZM11.3998 9.48453C10.9188 9.61151 10.6292 9.77816 10.2855 10.1257C9.88672 10.529 9.68086 10.9523 9.61326 11.5083C9.53595 12.1443 9.7538 12.844 10.175 13.3125L10.3107 13.4634L10.3473 13.284C10.4145 12.9546 10.6646 12.673 11.0557 12.4863C11.1551 12.4388 11.2518 12.4 11.2706 12.4C11.2893 12.4 11.2503 12.3389 11.1839 12.2643C11.1175 12.1896 11.0233 12.045 10.9746 11.9429C10.8947 11.7756 10.8859 11.7301 10.8857 11.4857C10.8855 11.24 10.8941 11.1962 10.9759 11.0234C11.0996 10.7624 11.2645 10.592 11.5109 10.4704C11.7698 10.3428 12.0064 10.3156 12.2705 10.3833C12.721 10.4987 13.0232 10.812 13.1167 11.2607C13.1936 11.6294 13.0873 11.9884 12.8194 12.2643C12.7349 12.3513 12.7038 12.4 12.7327 12.4C12.7575 12.4 12.8686 12.4454 12.9796 12.501C13.3349 12.6787 13.5818 12.9524 13.6581 13.2532L13.6908 13.3818L13.8241 13.2123C14.3112 12.5931 14.444 11.6622 14.1517 10.9143C13.8767 10.2104 13.2662 9.67722 12.5166 9.48619C12.2159 9.40953 11.6868 9.40876 11.3998 9.48453ZM11.7855 10.8644C11.6462 10.9109 11.4259 11.1384 11.388 11.2748C11.3229 11.5095 11.3819 11.7718 11.5373 11.9385C11.775 12.1936 12.2133 12.194 12.4678 11.9395C12.8645 11.5429 12.6109 10.8768 12.0498 10.8414C11.9594 10.8357 11.8405 10.846 11.7855 10.8644ZM11.6734 12.7277C11.2161 12.8138 10.8111 13.1109 10.7164 13.4296C10.6311 13.7168 10.6631 13.776 10.9805 13.9186C11.2827 14.0542 11.5814 14.1139 11.9569 14.1137C12.4266 14.1134 12.7501 14.0291 13.1527 13.8023L13.3341 13.7L13.3179 13.5611C13.251 12.987 12.4507 12.5814 11.6734 12.7277ZM14.0712 14.0286C13.9815 14.1183 14 14.2144 14.1355 14.3634C14.7371 15.0252 15.7232 16.051 15.7894 16.0839C15.8645 16.1213 15.8789 16.1198 15.9501 16.0668C16.0005 16.0294 16.0315 15.9768 16.0373 15.9191C16.0469 15.8219 16.0113 15.7811 14.7904 14.4936C14.3684 14.0484 14.2831 13.9714 14.2119 13.9714C14.1659 13.9714 14.1026 13.9972 14.0712 14.0286ZM9.7324 14.3616C9.66983 14.422 9.37335 14.745 9.07352 15.0794C8.5976 15.6102 8.52835 15.6995 8.52835 15.7822C8.52835 15.8984 8.60223 15.9714 8.71983 15.9714C8.79706 15.9714 8.87189 15.899 9.389 15.3234C10.0337 14.6058 10.0998 14.525 10.0998 14.4548C10.0998 14.3836 10.0109 14.2908 9.92295 14.27C9.85983 14.2551 9.82583 14.2714 9.7324 14.3616ZM16.9319 15.9308C16.3734 16.081 15.9198 16.5611 15.8001 17.1286C15.7769 17.2386 15.7579 17.3864 15.7579 17.4572C15.7579 17.7808 15.9247 18.2254 16.1389 18.4734L16.23 18.5786L16.2671 18.4336C16.3174 18.2376 16.4826 18.0547 16.7111 17.9422L16.8909 17.8537L16.8133 17.7706C16.5029 17.4384 16.5683 16.8825 16.9471 16.6315C17.2203 16.4506 17.5309 16.4529 17.8058 16.6377C17.9942 16.7644 18.1024 16.9499 18.1204 17.1771C18.1387 17.4068 18.0956 17.5637 17.9685 17.7302C17.9128 17.8031 17.8714 17.865 17.8764 17.8677C17.8814 17.8704 17.9461 17.9008 18.0201 17.9354C18.2135 18.0256 18.369 18.178 18.4428 18.3497L18.507 18.4988L18.5903 18.3994C18.6966 18.2726 18.8061 18.0494 18.8583 17.8534C18.9186 17.6267 18.9116 17.2158 18.8437 16.9959C18.6847 16.4812 18.2506 16.063 17.7385 15.931C17.523 15.8754 17.1381 15.8753 16.9319 15.9308ZM6.89509 16.0246C6.688 16.093 6.57143 16.1662 6.4256 16.3197C6.26937 16.4841 6.19649 16.6121 6.14369 16.8148C6.04966 17.1759 6.13137 17.5559 6.36406 17.8393L6.43146 17.9214L6.46632 17.805C6.50672 17.6702 6.6304 17.5363 6.78952 17.4551L6.90123 17.3981L6.83172 17.3062C6.64686 17.0618 6.67972 16.7525 6.91223 16.5483C7.25955 16.2434 7.81406 16.4946 7.81406 16.9569C7.81406 17.1056 7.7602 17.2539 7.67543 17.3386L7.61749 17.3966L7.74309 17.4574C7.89377 17.5303 8.03869 17.6875 8.0618 17.803L8.07857 17.8869L8.16366 17.7713C8.40646 17.4411 8.44566 16.9948 8.26589 16.6078C8.1692 16.3996 7.89217 16.1371 7.68549 16.0578C7.449 15.9671 7.11217 15.9529 6.89509 16.0246ZM7.05043 16.7579C6.958 16.8504 6.95086 16.8694 6.9642 16.9877C6.9816 17.142 7.0436 17.218 7.18735 17.2611C7.33855 17.3064 7.49726 17.2276 7.55263 17.0798C7.60229 16.9472 7.57817 16.8454 7.47195 16.7392C7.34855 16.6158 7.18529 16.6231 7.05043 16.7579ZM17.1566 16.8929C17.0029 16.9975 16.9459 17.096 16.9459 17.2572C16.9459 17.7007 17.5417 17.8488 17.7491 17.4568C17.831 17.3019 17.831 17.2124 17.7491 17.0575C17.6325 16.837 17.3529 16.7593 17.1566 16.8929ZM6.90909 17.6408C6.75672 17.7118 6.68626 17.7898 6.64603 17.9322C6.61269 18.0502 6.63323 18.0837 6.77666 18.1452C7.07589 18.2735 7.45735 18.2645 7.7476 18.1224C7.90197 18.0468 7.90497 18.043 7.88923 17.944C7.86897 17.8166 7.69337 17.6454 7.53912 17.6025C7.3426 17.548 7.0734 17.5643 6.90909 17.6408ZM16.9527 18.1534C16.658 18.2747 16.5002 18.4562 16.4999 18.6744C16.4998 18.7913 16.5002 18.7917 16.6937 18.8809C17.0653 19.0522 17.5119 19.0658 17.8998 18.9176C18.1628 18.8171 18.2426 18.7563 18.2426 18.6562C18.2426 18.4647 18.0422 18.2467 17.7739 18.1463C17.5417 18.0594 17.1735 18.0626 16.9527 18.1534Z" fill="white"/>
<path d="M35.8174 18.18C39.3814 18.18 40.8754 16.488 40.8754 14.652C40.8754 12.888 39.6874 11.79 37.2754 11.358L34.3414 10.854C32.9194 10.548 32.3074 10.206 32.3074 9.162C32.3074 8.082 33.1714 7.542 35.3674 7.542C37.8694 7.542 38.7514 8.28 38.7514 9.756V9.99H40.6774V9.882C40.6774 7.524 39.0754 5.76 35.5474 5.76C31.8034 5.76 30.3634 7.524 30.3634 9.27C30.3634 11.25 31.8034 12.186 33.8374 12.546L36.7894 13.032C38.3194 13.32 38.9314 13.716 38.9314 14.76C38.9314 15.894 38.1214 16.398 35.8174 16.398C33.1714 16.398 32.3254 15.678 32.3254 14.238V13.95H30.3814V14.058C30.3814 16.596 32.2174 18.18 35.8174 18.18ZM44.1995 21.06V15.48H44.2715C44.6315 17.118 45.9275 18.18 47.9435 18.18C50.7335 18.18 52.2635 16.308 52.2635 13.536C52.2635 10.764 50.6975 8.874 47.9255 8.874C45.8195 8.874 44.5595 9.882 44.1995 11.538H44.0375V9.054H42.2555V21.06H44.1995ZM44.1995 13.68V13.518C44.1995 11.592 45.3155 10.656 47.3135 10.656C49.1855 10.656 50.3195 11.376 50.3195 13.536C50.3195 15.678 49.2035 16.416 47.2775 16.416C45.3695 16.416 44.1995 15.516 44.1995 13.68ZM58.1829 18.18C61.1709 18.18 63.1689 16.29 63.1689 13.536C63.1689 10.746 61.1709 8.874 58.1829 8.874C55.2129 8.874 53.2149 10.746 53.2149 13.536C53.2149 16.29 55.2129 18.18 58.1829 18.18ZM58.1829 16.452C56.0229 16.452 55.1229 15.426 55.1229 13.536C55.1229 11.628 56.0229 10.584 58.1829 10.584C60.3609 10.584 61.2609 11.628 61.2609 13.536C61.2609 15.426 60.3609 16.452 58.1829 16.452ZM66.5237 18V12.978C66.5237 11.376 67.1537 10.53 68.6837 10.53C70.0157 10.53 70.5557 11.124 70.5557 12.402V13.194H72.4817V12.024C72.4817 10.332 71.5997 8.874 69.5657 8.874C67.7297 8.874 66.7577 10.026 66.4877 11.466H66.3617V9.054H64.5797V18H66.5237ZM79.5707 18V16.254H77.9507C76.8347 16.254 76.3307 15.966 76.3307 14.868V10.674H79.5707V9.054H76.3307V7.092H74.4047V9.054H72.8927V10.674H74.4047V14.976C74.4047 17.154 75.5927 18 77.5187 18H79.5707ZM85.2867 18.18C87.9507 18.18 89.8227 16.866 89.8227 14.958V14.796H87.8787V14.94C87.8787 16.002 87.1047 16.614 85.2327 16.614C83.1627 16.614 82.3167 15.696 82.2447 13.968H89.8407C89.8947 13.698 89.9127 13.446 89.9127 13.122C89.9127 10.404 88.0227 8.874 85.2507 8.874C82.3347 8.874 80.4267 10.746 80.4267 13.536C80.4267 16.524 82.3527 18.18 85.2867 18.18ZM85.2147 10.404C87.1227 10.404 88.0767 11.196 88.0767 12.852V12.888H82.2627C82.3707 11.286 83.2347 10.404 85.2147 10.404ZM92.8447 18L95.7788 14.58H95.9048L98.8748 18H101.233L97.3808 13.536V13.428L101.233 9.054H98.8928L95.9588 12.438H95.8508L92.8808 9.054H90.5228L94.3748 13.464V13.572L90.5228 18H92.8447ZM106.697 18.18C109.379 18.18 111.341 16.668 111.341 14.436V14.238H109.415V14.364C109.415 15.75 108.407 16.434 106.661 16.434C104.645 16.434 103.745 15.462 103.745 13.536C103.745 11.574 104.645 10.62 106.661 10.62C108.407 10.62 109.415 11.304 109.415 12.69V12.798H111.341V12.618C111.341 10.386 109.379 8.874 106.697 8.874C103.745 8.874 101.819 10.746 101.819 13.536C101.819 16.29 103.745 18.18 106.697 18.18ZM114.723 18V5.94H112.779V18H114.723ZM120.249 18.18C122.553 18.18 123.741 16.74 124.029 15.228H124.137V18H125.919V9.054H123.993V13.482C123.993 15.426 123.075 16.434 121.095 16.434C119.205 16.434 118.431 15.588 118.431 13.914V9.054H116.505V14.436C116.505 16.506 117.729 18.18 120.249 18.18ZM129.467 18V15.426H129.593C129.971 17.208 131.285 18.18 133.319 18.18C136.163 18.18 137.693 16.29 137.693 13.536C137.693 10.746 136.181 8.874 133.427 8.874C131.285 8.874 130.097 9.972 129.737 11.484H129.629V5.94H127.685V18H129.467ZM129.629 13.626V13.482C129.629 11.574 130.727 10.638 132.743 10.638C134.651 10.638 135.749 11.376 135.749 13.536C135.749 15.678 134.669 16.398 132.707 16.398C130.781 16.398 129.629 15.498 129.629 13.626Z" fill="white"/>
</svg>
