<svg width="41" height="40" viewBox="0 0 41 40" fill="none" xmlns="http://www.w3.org/2000/svg">
<g clip-path="url(#clip0_949_436)">
<path d="M5.8938 22.6668C6.10913 20.2648 6.88913 17.8175 8.08913 15.4695" stroke="#3861FB" stroke-width="2" stroke-miterlimit="10"/>
<path d="M5.92792 25.3327C5.86592 24.8973 5.83325 24.452 5.83325 24" stroke="#3861FB" stroke-width="2" stroke-miterlimit="10"/>
<path d="M35.0726 20.2461C33.8453 22.1734 32.3459 24.0168 30.6699 25.6801" stroke="#3861FB" stroke-width="2" stroke-miterlimit="10"/>
<path d="M36.638 17.4226C36.428 17.8693 36.36 18.0026 36.1187 18.4446" stroke="#3861FB" stroke-width="2" stroke-miterlimit="10"/>
<path d="M25.6799 3.82275C25.2359 3.93675 25.0619 3.98942 24.6172 4.14409" stroke="#3861FB" stroke-width="2" stroke-miterlimit="10"/>
<path d="M35.6594 12.0002C35.7734 11.3268 35.8334 10.6588 35.8334 10.0002C35.8334 6.31816 32.8487 3.3335 29.1667 3.3335C28.5087 3.3335 28.03 3.36016 27.3567 3.46816" stroke="#3861FB" stroke-width="2" stroke-miterlimit="10"/>
<path d="M34.9719 14.5741C35.1339 14.1294 35.2146 13.8754 35.3346 13.4314" stroke="#3861FB" stroke-width="2" stroke-miterlimit="10"/>
<path d="M12.9547 12.8628C10.256 16.3428 8.5 20.3261 8.5 24.0001C8.5 27.6821 11.4847 30.6668 15.1667 30.6668C21.78 30.6668 30.334 24.0681 34.016 16.7941" stroke="#3861FB" stroke-width="2" stroke-miterlimit="10"/>
<path d="M22.8752 4.82935C21.2052 5.58535 19.5639 6.59735 18.0212 7.79401" stroke="#3861FB" stroke-width="2" stroke-miterlimit="10"/>
<path d="M30.126 16.9067C29.8486 17.3561 29.8466 17.3581 29.5293 17.7974" stroke="#3861FB" stroke-width="2" stroke-miterlimit="10"/>
<path d="M20.0586 10.4541C22.9766 8.17341 26.2566 6.66675 29.1666 6.66675C31.0046 6.66675 32.4999 8.16208 32.4999 10.0001C32.4999 11.7194 31.9573 13.5414 31.0406 15.3334" stroke="#3861FB" stroke-width="2" stroke-miterlimit="10"/>
<path d="M28.1413 19.5901C24.4159 24.0221 19.1146 27.3334 15.1666 27.3334C13.3286 27.3334 11.8333 25.8381 11.8333 24.0001C11.8333 20.8448 13.6053 17.2541 16.2139 14.1621" stroke="#3861FB" stroke-width="2" stroke-miterlimit="10"/>
<path d="M26.4999 14.0001C26.4999 13.2634 25.9026 12.6667 25.1666 12.6667C22.5066 12.6667 17.8333 17.3541 17.8333 20.0001C17.8333 20.7361 18.4306 21.3334 19.1666 21.3334C20.6659 21.3334 22.6406 20.0347 24.2193 18.2594" stroke="#3861FB" stroke-width="2" stroke-miterlimit="10"/>
<path d="M27.8333 24.6667L30.1113 34.0001" stroke="#3861FB" stroke-width="2" stroke-miterlimit="10"/>
<path d="M19.8199 29.7419L18.2219 33.9999" stroke="#3861FB" stroke-width="2" stroke-miterlimit="10"/>
<path d="M27.1673 34H33.6659C33.9439 34 34.1926 34.1727 34.2899 34.4327L35.7899 38.4327C35.9539 38.8687 35.6313 39.3333 35.1659 39.3333H13.1673C12.7019 39.3333 12.3799 38.8687 12.5433 38.4327L14.0433 34.4327C14.1406 34.1727 14.3893 34 14.6673 34H23.1633" stroke="#3861FB" stroke-width="2" stroke-miterlimit="10"/>
<path d="M24.5 34H25.8333" stroke="#3861FB" stroke-width="2" stroke-miterlimit="10"/>
<path d="M22.8752 17.0422L13.1665 7.3335" stroke="#3861FB" stroke-width="2" stroke-miterlimit="10"/>
<path d="M7.4579 7.33339H13.1666V1.62472C13.1666 1.33739 12.7939 1.22405 12.6346 1.46339L10.4999 4.66672L7.29657 6.80139C7.05724 6.96072 7.1699 7.33339 7.4579 7.33339V7.33339Z" stroke="#3861FB" stroke-width="2" stroke-miterlimit="10"/>
<path d="M7.1665 32.0002V29.3335" stroke="#3861FB" stroke-width="2" stroke-miterlimit="10"/>
<path d="M7.1665 37.3334V34.6667" stroke="#3861FB" stroke-width="2" stroke-miterlimit="10"/>
<path d="M8.5 33.3335H10.5" stroke="#3861FB" stroke-width="2" stroke-miterlimit="10"/>
<path d="M5.83325 33.3335H3.83325" stroke="#3861FB" stroke-width="2" stroke-miterlimit="10"/>
</g>
<defs>
<clipPath id="clip0_949_436">
<rect width="40" height="40" fill="white" transform="translate(0.5)"/>
</clipPath>
</defs>
</svg>
