<svg width="41" height="40" viewBox="0 0 41 40" fill="none" xmlns="http://www.w3.org/2000/svg">
<path d="M7.16667 10.6667C5.694 10.6667 4.5 9.42267 4.5 7.88867V6.77733C4.5 5.24333 5.694 4 7.16667 4C8.63933 4 9.83333 5.24333 9.83333 6.778V7.88933C9.83333 9.42267 8.63933 10.6667 7.16667 10.6667Z" stroke="#3861FB" stroke-width="2" stroke-miterlimit="10"/>
<path d="M2.5 19.9999V15.9999C2.5 14.5273 3.694 13.3333 5.16667 13.3333H9.16667C10.6393 13.3333 11.8333 14.5273 11.8333 15.9999V19.9999" stroke="#3861FB" stroke-width="2" stroke-miterlimit="10"/>
<path d="M27.8335 25.3333V20.6666C27.8335 18.8259 29.3262 17.3333 31.1668 17.3333H35.1668C37.0075 17.3333 38.5002 18.8259 38.5002 20.6666V25.3333" stroke="#3861FB" stroke-width="2" stroke-miterlimit="10"/>
<path d="M18.5002 27.9999C17.0275 27.9999 15.8335 26.7559 15.8335 25.2219V24.1106C15.8335 22.5773 17.0275 21.3333 18.5002 21.3333C19.9728 21.3333 21.1668 22.5773 21.1668 24.1113V25.2226C21.1668 26.7559 19.9728 27.9999 18.5002 27.9999Z" stroke="#3861FB" stroke-width="2" stroke-miterlimit="10"/>
<path d="M13.8335 37.3334V33.3334C13.8335 31.8607 15.0275 30.6667 16.5002 30.6667H20.5002C21.9728 30.6667 23.1668 31.8607 23.1668 33.3334V37.3334" stroke="#3861FB" stroke-width="2" stroke-miterlimit="10"/>
<path d="M33.1668 14.6667C31.3055 14.6667 29.8335 13.1741 29.8335 11.3334V10.0001C29.8335 8.15941 31.3195 6.66675 33.1668 6.66675C35.0075 6.66675 36.5002 8.15941 36.5002 10.0001V11.3334C36.5002 13.1741 35.0075 14.6667 33.1668 14.6667Z" stroke="#3861FB" stroke-width="2" stroke-miterlimit="10"/>
<path d="M17.3525 5.2793C18.2972 5.48863 19.1452 5.73663 19.8332 5.99996C21.8145 6.7593 23.7805 7.66463 26.9372 10.462" stroke="#3861FB" stroke-width="2" stroke-miterlimit="10"/>
<path d="M14.6626 4.83276C14.9953 4.87076 15.3239 4.91476 15.6473 4.96343" stroke="#3861FB" stroke-width="2" stroke-miterlimit="10"/>
<path d="M11.8335 4.66675C12.2222 4.66675 12.6122 4.67675 13.0008 4.69608" stroke="#3861FB" stroke-width="2" stroke-miterlimit="10"/>
<path d="M21.6831 16.4313C23.3291 14.6313 25.5611 13.3333 27.1664 13.3333" stroke="#3861FB" stroke-width="2" stroke-miterlimit="10"/>
<path d="M19.9341 19.0793C20.0587 18.7827 20.2061 18.4894 20.3727 18.2007" stroke="#3861FB" stroke-width="2" stroke-miterlimit="10"/>
</svg>
