<svg width="35" height="35" viewBox="0 0 35 35" fill="none" xmlns="http://www.w3.org/2000/svg">
<path d="M6.91304 3C5.81257 3 4.84923 3.33491 4.14385 3.94457C3.43848 4.55423 3.00764 5.45753 3.00764 6.44434C3.00764 8.35898 4.61003 9.84099 6.72835 9.92958C6.7881 9.95004 6.85032 9.96106 6.91304 9.96229C8.05667 9.96229 9.03012 9.60358 9.72554 8.96865C10.421 8.33372 10.8184 7.41833 10.8184 6.44434C10.8183 6.43161 10.8179 6.41889 10.8172 6.40618C10.7167 4.47945 9.11399 3 6.91304 3ZM6.91304 4.37937C8.61461 4.37937 9.45384 5.27338 9.52556 6.46206C9.52093 7.04288 9.3108 7.53625 8.88995 7.92049C8.46444 8.30898 7.80746 8.58292 6.91304 8.58292C5.21612 8.58292 4.29671 7.59715 4.29671 6.44434C4.29671 5.86794 4.51804 5.39404 4.95397 5.01726C5.38991 4.64049 6.05699 4.37937 6.91304 4.37937ZM3.65217 11.3662C3.47921 11.3662 3.31334 11.4397 3.19104 11.5706C3.06873 11.7015 3.00002 11.879 3 12.0641V32.3021C3.00002 32.4872 3.06873 32.6647 3.19104 32.7956C3.31334 32.9265 3.47921 33 3.65217 33H10.1739C10.3469 33 10.5127 32.9265 10.6351 32.7956C10.7574 32.6647 10.8261 32.4872 10.8261 32.3021V25.7869V12.0641C10.8261 11.879 10.7574 11.7015 10.6351 11.5706C10.5127 11.4397 10.3469 11.3662 10.1739 11.3662H3.65217ZM13.4348 11.3662C13.2618 11.3662 13.0959 11.4397 12.9736 11.5706C12.8513 11.7015 12.7826 11.879 12.7826 12.0641V32.3021C12.7826 32.4872 12.8513 32.6647 12.9736 32.7956C13.0959 32.9265 13.2618 33 13.4348 33H19.9565C20.1295 33 20.2954 32.9265 20.4177 32.7956C20.54 32.6647 20.6087 32.4872 20.6087 32.3021V21.1363V20.9618V20.7874C20.6087 19.4304 21.6232 18.3448 22.8913 18.3448C24.1594 18.3448 25.1739 19.4304 25.1739 20.7874V32.3021C25.1739 32.4872 25.2426 32.6647 25.365 32.7956C25.4873 32.9265 25.6531 33 25.8261 33H32.3478C32.5208 33 32.6867 32.9265 32.809 32.7956C32.9313 32.6647 33 32.4872 33 32.3021V20.4384C33 17.5587 32.2095 15.2773 30.8766 13.7215C29.5437 12.1656 27.6843 11.3662 25.6872 11.3662C23.141 11.3662 21.6011 12.3614 20.6087 13.1817V12.0641C20.6087 11.879 20.54 11.7015 20.4177 11.5706C20.2954 11.4397 20.1295 11.3662 19.9565 11.3662H13.4348ZM4.30435 12.7619H9.52174V25.7869V31.6043H4.30435V12.7619ZM14.087 12.7619H19.3043V14.6034C19.3044 14.7446 19.3445 14.8824 19.4193 14.9988C19.4941 15.1151 19.6001 15.2044 19.7233 15.2549C19.8465 15.3054 19.9812 15.3147 20.1095 15.2816C20.2378 15.2485 20.3537 15.1746 20.4418 15.0695C20.4418 15.0695 22.376 12.7619 25.6872 12.7619C27.3652 12.7619 28.8362 13.4055 29.9149 14.6647C30.9936 15.9239 31.6957 17.8295 31.6957 20.4384V31.6043H26.4783V20.7874C26.4791 20.6889 26.4604 20.5913 26.4235 20.5011C26.2787 18.5292 24.7698 16.9491 22.8913 16.9491C20.9181 16.9491 19.3043 18.6759 19.3043 20.7874V20.9618V21.1363V31.6043H14.087V12.7619Z" fill="#3861FB"/>
</svg>
