<svg width="138" height="24" viewBox="0 0 138 24" fill="none" xmlns="http://www.w3.org/2000/svg">
<rect width="24" height="24" rx="8" fill="white"/>
<path fill-rule="evenodd" clip-rule="evenodd" d="M16.2286 4.98745C15.8214 5.07522 15.3797 5.38468 15.175 5.72553C14.7984 6.3525 14.8352 7.07545 15.273 7.65428L15.4113 7.83713L15.4434 7.69442C15.4971 7.45608 15.6847 7.24965 15.9638 7.12188L16.1159 7.05225L16.0256 6.94942C15.8834 6.78748 15.8298 6.64099 15.8298 6.4143C15.8298 6.09153 15.9824 5.84068 16.2689 5.69259C16.3874 5.63133 16.4539 5.61728 16.6286 5.6167C16.8127 5.6161 16.8644 5.62785 16.996 5.69996C17.3007 5.86702 17.447 6.13573 17.4222 6.48265C17.4074 6.68865 17.3601 6.80299 17.2268 6.95488L17.1403 7.05336L17.263 7.10882C17.5393 7.2337 17.8 7.50956 17.8 7.67705C17.8 7.7733 17.8365 7.75819 17.9343 7.62145C18.225 7.21473 18.3319 6.67605 18.2137 6.21316C18.0966 5.75471 17.7488 5.32356 17.3388 5.12888C16.9679 4.95271 16.6045 4.90642 16.2286 4.98745ZM6.49393 5.74133C5.8833 5.96473 5.53219 6.62816 5.69702 7.24716C5.74373 7.42265 5.86805 7.65916 5.95796 7.74362L6.0227 7.80445L6.05725 7.69979C6.10505 7.5549 6.2405 7.40942 6.40536 7.32588L6.54445 7.25542L6.46765 7.1547C6.35156 7.0025 6.30885 6.80499 6.35419 6.63016C6.43373 6.32345 6.66576 6.15625 6.98376 6.1765C7.19459 6.1899 7.32836 6.26556 7.45048 6.44045C7.51925 6.5389 7.52859 6.57879 7.52859 6.77382C7.52859 6.97679 7.52096 7.00619 7.43753 7.12453L7.34648 7.25373L7.49959 7.34016C7.66345 7.43262 7.79065 7.57508 7.82542 7.70505L7.84685 7.78519L7.93679 7.66102C8.12708 7.39833 8.21128 7.00065 8.14456 6.67948C8.06448 6.29396 7.80082 5.96376 7.43599 5.79211C7.26256 5.71051 7.21228 5.7005 6.94288 5.69405C6.70565 5.68833 6.6117 5.69825 6.49393 5.74133ZM16.4759 5.98362C16.2562 6.06382 16.1521 6.23728 16.1792 6.4781C16.225 6.88368 16.7652 7.01513 17.0049 6.67902C17.0568 6.60625 17.0714 6.54805 17.0714 6.4143C17.0714 6.28056 17.0568 6.22236 17.0049 6.14959C16.8861 5.98305 16.6663 5.9141 16.4759 5.98362ZM6.76468 6.4733C6.54656 6.59165 6.55013 6.95699 6.7705 7.07096C7.01125 7.19545 7.28573 7.03519 7.28573 6.77013C7.28573 6.51662 6.99262 6.34965 6.76468 6.4733ZM16.2754 7.32899C15.944 7.42002 15.7051 7.66082 15.7018 7.90705L15.7 8.04288L15.8572 8.12068C16.0834 8.2327 16.3204 8.28573 16.5948 8.28573C16.8875 8.28573 17.1233 8.22788 17.3809 8.09285L17.576 7.99053L17.557 7.88813C17.4907 7.53119 17.1002 7.28216 16.6162 7.28828C16.5052 7.2897 16.3518 7.30802 16.2754 7.32899ZM6.62899 7.48456C6.34968 7.58096 6.13228 7.90673 6.27513 8.01482C6.46842 8.16108 6.96513 8.21988 7.26168 8.13159C7.42948 8.08165 7.64279 7.96945 7.6341 7.93573C7.63108 7.92396 7.62859 7.87996 7.62859 7.83799C7.62859 7.7849 7.5897 7.72442 7.50096 7.63936C7.28696 7.43433 6.94859 7.37425 6.62899 7.48456ZM8.20002 8.28573C8.10988 8.37588 8.12865 8.47256 8.26548 8.62268C8.3329 8.69665 8.5401 8.9243 8.7259 9.12859C9.16253 9.60865 9.21528 9.65716 9.30048 9.65716C9.39682 9.65716 9.48573 9.56142 9.48573 9.45765C9.48573 9.38728 9.40056 9.27908 8.9965 8.83622C8.72745 8.5413 8.48713 8.28396 8.46248 8.2643C8.39513 8.21065 8.26445 8.2213 8.20002 8.28573ZM14.1148 8.83196C13.6253 9.3753 13.5974 9.41239 13.6056 9.50962C13.6158 9.63042 13.7175 9.70548 13.832 9.67673C13.8761 9.66568 14.0946 9.4453 14.4086 9.09548C14.8379 8.61713 14.9143 8.51842 14.9143 8.44188C14.9143 8.32988 14.8383 8.25716 14.7212 8.25716C14.6422 8.25716 14.5764 8.31953 14.1148 8.83196ZM10.9 9.48453C10.4191 9.61151 10.1294 9.77816 9.78573 10.1257C9.38696 10.529 9.1811 10.9523 9.1135 11.5083C9.03619 12.1443 9.25405 12.844 9.67525 13.3125L9.81093 13.4634L9.84753 13.284C9.9147 12.9546 10.1649 12.673 10.5559 12.4863C10.6554 12.4388 10.7521 12.4 10.7708 12.4C10.7896 12.4 10.7506 12.3389 10.6842 12.2643C10.6178 12.1896 10.5236 12.045 10.4748 11.9429C10.395 11.7756 10.3861 11.7301 10.3859 11.4857C10.3858 11.24 10.3943 11.1962 10.4762 11.0234C10.5998 10.7624 10.7647 10.592 11.0112 10.4704C11.2701 10.3428 11.5066 10.3156 11.7708 10.3833C12.2212 10.4987 12.5234 10.812 12.617 11.2607C12.6938 11.6294 12.5875 11.9884 12.3196 12.2643C12.2352 12.3513 12.2041 12.4 12.233 12.4C12.2578 12.4 12.3689 12.4454 12.4799 12.501C12.8351 12.6787 13.082 12.9524 13.1584 13.2532L13.191 13.3818L13.3244 13.2123C13.8115 12.5931 13.9442 11.6622 13.652 10.9143C13.377 10.2104 12.7664 9.67722 12.0169 9.48619C11.7161 9.40953 11.1871 9.40876 10.9 9.48453ZM11.2857 10.8644C11.1465 10.9109 10.9261 11.1384 10.8883 11.2748C10.8231 11.5095 10.8821 11.7718 11.0375 11.9385C11.2752 12.1936 11.7136 12.194 11.9681 11.9395C12.3647 11.5429 12.1112 10.8768 11.55 10.8414C11.4597 10.8357 11.3407 10.846 11.2857 10.8644ZM11.1736 12.7277C10.7164 12.8138 10.3113 13.1109 10.2166 13.4296C10.1314 13.7168 10.1633 13.776 10.4808 13.9186C10.7829 14.0542 11.0816 14.1139 11.4572 14.1137C11.9268 14.1134 12.2504 14.0291 12.6529 13.8023L12.8343 13.7L12.8182 13.5611C12.7512 12.987 11.951 12.5814 11.1736 12.7277ZM13.5714 14.0286C13.4818 14.1183 13.5002 14.2144 13.6357 14.3634C14.2374 15.0252 15.2234 16.051 15.2896 16.0839C15.3647 16.1213 15.3791 16.1198 15.4503 16.0668C15.5007 16.0294 15.5318 15.9768 15.5375 15.9191C15.5472 15.8219 15.5115 15.7811 14.2907 14.4936C13.8686 14.0484 13.7833 13.9714 13.7121 13.9714C13.6662 13.9714 13.6029 13.9972 13.5714 14.0286ZM9.23265 14.3616C9.17008 14.422 8.87359 14.745 8.57376 15.0794C8.09785 15.6102 8.02859 15.6995 8.02859 15.7822C8.02859 15.8984 8.10248 15.9714 8.22008 15.9714C8.2973 15.9714 8.37213 15.899 8.88925 15.3234C9.53399 14.6058 9.60002 14.525 9.60002 14.4548C9.60002 14.3836 9.51119 14.2908 9.42319 14.27C9.36008 14.2551 9.32608 14.2714 9.23265 14.3616ZM16.4321 15.9308C15.8736 16.081 15.42 16.5611 15.3003 17.1286C15.2771 17.2386 15.2582 17.3864 15.2582 17.4572C15.2582 17.7808 15.4249 18.2254 15.6392 18.4734L15.7302 18.5786L15.7674 18.4336C15.8176 18.2376 15.9829 18.0547 16.2114 17.9422L16.3911 17.8537L16.3136 17.7706C16.0032 17.4384 16.0685 16.8825 16.4474 16.6315C16.7205 16.4506 17.0312 16.4529 17.3061 16.6377C17.4944 16.7644 17.6026 16.9499 17.6206 17.1771C17.6389 17.4068 17.5958 17.5637 17.4687 17.7302C17.4131 17.8031 17.3716 17.865 17.3766 17.8677C17.3816 17.8704 17.4463 17.9008 17.5204 17.9354C17.7138 18.0256 17.8692 18.178 17.9431 18.3497L18.0072 18.4988L18.0905 18.3994C18.1968 18.2726 18.3064 18.0494 18.3585 17.8534C18.4188 17.6267 18.4118 17.2158 18.3439 16.9959C18.1849 16.4812 17.7509 16.063 17.2388 15.931C17.0232 15.8754 16.6383 15.8753 16.4321 15.9308ZM6.39533 16.0246C6.18825 16.093 6.07168 16.1662 5.92585 16.3197C5.76962 16.4841 5.69673 16.6121 5.64393 16.8148C5.5499 17.1759 5.63162 17.5559 5.8643 17.8393L5.9317 17.9214L5.96656 17.805C6.00696 17.6702 6.13065 17.5363 6.28976 17.4551L6.40148 17.3981L6.33196 17.3062C6.1471 17.0618 6.17996 16.7525 6.41248 16.5483C6.75979 16.2434 7.3143 16.4946 7.3143 16.9569C7.3143 17.1056 7.26045 17.2539 7.17568 17.3386L7.11773 17.3966L7.24333 17.4574C7.39402 17.5303 7.53893 17.6875 7.56205 17.803L7.57882 17.8869L7.6639 17.7713C7.9067 17.4411 7.9459 16.9948 7.76613 16.6078C7.66945 16.3996 7.39242 16.1371 7.18573 16.0578C6.94925 15.9671 6.61242 15.9529 6.39533 16.0246ZM6.55068 16.7579C6.45825 16.8504 6.4511 16.8694 6.46445 16.9877C6.48185 17.142 6.54385 17.218 6.68759 17.2611C6.83879 17.3064 6.9975 17.2276 7.05288 17.0798C7.10253 16.9472 7.07842 16.8454 6.97219 16.7392C6.84879 16.6158 6.68553 16.6231 6.55068 16.7579ZM16.6569 16.8929C16.5032 16.9975 16.4462 17.096 16.4462 17.2572C16.4462 17.7007 17.042 17.8488 17.2493 17.4568C17.3312 17.3019 17.3312 17.2124 17.2493 17.0575C17.1327 16.837 16.8531 16.7593 16.6569 16.8929ZM6.40933 17.6408C6.25696 17.7118 6.1865 17.7898 6.14628 17.9322C6.11293 18.0502 6.13348 18.0837 6.2769 18.1452C6.57613 18.2735 6.95759 18.2645 7.24785 18.1224C7.40222 18.0468 7.40522 18.043 7.38948 17.944C7.36922 17.8166 7.19362 17.6454 7.03936 17.6025C6.84285 17.548 6.57365 17.5643 6.40933 17.6408ZM16.453 18.1534C16.1582 18.2747 16.0004 18.4562 16.0002 18.6744C16 18.7913 16.0004 18.7917 16.1939 18.8809C16.5655 19.0522 17.0122 19.0658 17.4 18.9176C17.6631 18.8171 17.7429 18.7563 17.7429 18.6562C17.7429 18.4647 17.5424 18.2467 17.2741 18.1463C17.0419 18.0594 16.6737 18.0626 16.453 18.1534Z" fill="#3861FB"/>
<path d="M35.3174 18.18C38.8814 18.18 40.3754 16.488 40.3754 14.652C40.3754 12.888 39.1874 11.79 36.7754 11.358L33.8414 10.854C32.4194 10.548 31.8074 10.206 31.8074 9.162C31.8074 8.082 32.6714 7.542 34.8674 7.542C37.3694 7.542 38.2514 8.28 38.2514 9.756V9.99H40.1774V9.882C40.1774 7.524 38.5754 5.76 35.0474 5.76C31.3034 5.76 29.8634 7.524 29.8634 9.27C29.8634 11.25 31.3034 12.186 33.3374 12.546L36.2894 13.032C37.8194 13.32 38.4314 13.716 38.4314 14.76C38.4314 15.894 37.6214 16.398 35.3174 16.398C32.6714 16.398 31.8254 15.678 31.8254 14.238V13.95H29.8814V14.058C29.8814 16.596 31.7174 18.18 35.3174 18.18ZM43.6995 21.06V15.48H43.7715C44.1315 17.118 45.4275 18.18 47.4435 18.18C50.2335 18.18 51.7635 16.308 51.7635 13.536C51.7635 10.764 50.1975 8.874 47.4255 8.874C45.3195 8.874 44.0595 9.882 43.6995 11.538H43.5375V9.054H41.7555V21.06H43.6995ZM43.6995 13.68V13.518C43.6995 11.592 44.8155 10.656 46.8135 10.656C48.6855 10.656 49.8195 11.376 49.8195 13.536C49.8195 15.678 48.7035 16.416 46.7775 16.416C44.8695 16.416 43.6995 15.516 43.6995 13.68ZM57.6829 18.18C60.6709 18.18 62.6689 16.29 62.6689 13.536C62.6689 10.746 60.6709 8.874 57.6829 8.874C54.7129 8.874 52.7149 10.746 52.7149 13.536C52.7149 16.29 54.7129 18.18 57.6829 18.18ZM57.6829 16.452C55.5229 16.452 54.6229 15.426 54.6229 13.536C54.6229 11.628 55.5229 10.584 57.6829 10.584C59.8609 10.584 60.7609 11.628 60.7609 13.536C60.7609 15.426 59.8609 16.452 57.6829 16.452ZM66.0237 18V12.978C66.0237 11.376 66.6537 10.53 68.1837 10.53C69.5157 10.53 70.0557 11.124 70.0557 12.402V13.194H71.9817V12.024C71.9817 10.332 71.0997 8.874 69.0657 8.874C67.2297 8.874 66.2577 10.026 65.9877 11.466H65.8617V9.054H64.0797V18H66.0237ZM79.0707 18V16.254H77.4507C76.3347 16.254 75.8307 15.966 75.8307 14.868V10.674H79.0707V9.054H75.8307V7.092H73.9047V9.054H72.3927V10.674H73.9047V14.976C73.9047 17.154 75.0927 18 77.0187 18H79.0707ZM84.7867 18.18C87.4507 18.18 89.3227 16.866 89.3227 14.958V14.796H87.3787V14.94C87.3787 16.002 86.6047 16.614 84.7327 16.614C82.6627 16.614 81.8167 15.696 81.7447 13.968H89.3407C89.3947 13.698 89.4127 13.446 89.4127 13.122C89.4127 10.404 87.5227 8.874 84.7507 8.874C81.8347 8.874 79.9267 10.746 79.9267 13.536C79.9267 16.524 81.8527 18.18 84.7867 18.18ZM84.7147 10.404C86.6227 10.404 87.5767 11.196 87.5767 12.852V12.888H81.7627C81.8707 11.286 82.7347 10.404 84.7147 10.404ZM92.3447 18L95.2788 14.58H95.4048L98.3748 18H100.733L96.8808 13.536V13.428L100.733 9.054H98.3928L95.4588 12.438H95.3508L92.3808 9.054H90.0228L93.8748 13.464V13.572L90.0228 18H92.3447ZM106.197 18.18C108.879 18.18 110.841 16.668 110.841 14.436V14.238H108.915V14.364C108.915 15.75 107.907 16.434 106.161 16.434C104.145 16.434 103.245 15.462 103.245 13.536C103.245 11.574 104.145 10.62 106.161 10.62C107.907 10.62 108.915 11.304 108.915 12.69V12.798H110.841V12.618C110.841 10.386 108.879 8.874 106.197 8.874C103.245 8.874 101.319 10.746 101.319 13.536C101.319 16.29 103.245 18.18 106.197 18.18ZM114.223 18V5.94H112.279V18H114.223ZM119.749 18.18C122.053 18.18 123.241 16.74 123.529 15.228H123.637V18H125.419V9.054H123.493V13.482C123.493 15.426 122.575 16.434 120.595 16.434C118.705 16.434 117.931 15.588 117.931 13.914V9.054H116.005V14.436C116.005 16.506 117.229 18.18 119.749 18.18ZM128.967 18V15.426H129.093C129.471 17.208 130.785 18.18 132.819 18.18C135.663 18.18 137.193 16.29 137.193 13.536C137.193 10.746 135.681 8.874 132.927 8.874C130.785 8.874 129.597 9.972 129.237 11.484H129.129V5.94H127.185V18H128.967ZM129.129 13.626V13.482C129.129 11.574 130.227 10.638 132.243 10.638C134.151 10.638 135.249 11.376 135.249 13.536C135.249 15.678 134.169 16.398 132.207 16.398C130.281 16.398 129.129 15.498 129.129 13.626Z" fill="white"/>
</svg>
