<svg width="35" height="35" viewBox="0 0 35 35" fill="none" xmlns="http://www.w3.org/2000/svg">
<path fill-rule="evenodd" clip-rule="evenodd" d="M17.5008 15.1746L19.9562 6.90039H32.2008V13.2004H30.1008V25.1004H32.2008V30.7004H20.1094L20.0738 27.8813L19.2508 30.7004H14.3508L13.3008 27.0992V30.7004H2.80078V25.1004H4.84883L4.85156 25.0949L4.85703 25.0895L4.85977 25.0812L4.86523 25.0758L4.87617 25.0594L4.87891 25.0512L4.88438 25.0457L4.88984 25.0293L4.89531 25.0211L4.89805 25.0156L4.90078 25.0074V13.2004H2.80078V6.90039H15.0453L17.5008 15.1746ZM4.20078 8.30039V11.8004H4.90078L4.98281 11.8031L5.06211 11.8059L5.14141 11.8113L5.17969 11.8141L5.21523 11.8195L5.25352 11.825L5.28906 11.8277L5.32461 11.8359L5.36016 11.8414L5.39297 11.8469L5.42852 11.8551L5.52695 11.8797L5.55703 11.8879L5.58984 11.8988L5.61992 11.9098L5.64727 11.9207L5.67734 11.9316L5.70469 11.9453L5.73477 11.959L5.76211 11.9727L5.78672 11.9863L5.81406 12L5.86328 12.0328L5.88789 12.052L5.90977 12.0684L5.93438 12.0875L5.97813 12.1258L5.99727 12.1477L6.01914 12.1695L6.05742 12.2133L6.07383 12.2379L6.09297 12.2625L6.10938 12.2871L6.12305 12.3145L6.15586 12.3691L6.16953 12.3992L6.1832 12.4266L6.19414 12.4594L6.20781 12.4895L6.22969 12.5551L6.23789 12.5879L6.24883 12.6234L6.25703 12.659L6.2625 12.6973L6.2707 12.7355L6.28164 12.8121L6.29258 12.8941L6.29531 12.9352L6.29805 12.9789V13.0254L6.30078 13.0691V25.1195L6.29805 25.1387V25.1605L6.29258 25.2043L6.28984 25.2289L6.28438 25.2508L6.27344 25.3L6.26797 25.3273L6.25156 25.3793L6.23516 25.434L6.22422 25.4613L6.21602 25.4914L6.20508 25.5187L6.19141 25.5488L6.18047 25.5762L6.13945 25.6664L6.12305 25.6938L6.07383 25.784L6.05469 25.8141L6.03555 25.8414L5.99727 25.9016L5.97539 25.9289L5.95625 25.959L5.93438 25.9863L5.90977 26.0137L5.88789 26.041L5.83867 26.0957L5.78672 26.1477L5.73203 26.1969L5.70195 26.2215L5.67461 26.2434L5.61445 26.2871L5.58164 26.309L5.55156 26.3281L5.48594 26.3664L5.45039 26.3828L5.41758 26.3992L5.34648 26.4266L5.3082 26.4402L5.19336 26.473L5.15234 26.4812L5.11406 26.4867L5.07305 26.4922L5.0293 26.4977L4.98828 26.5004H4.20078V29.3004H11.9008V26.5004H10.5008V12.5004L15.4008 29.3004H18.2008L23.1008 12.5004V26.5004H21.4547L21.4902 29.3004H30.8008V26.5004H29.7043L29.6742 26.4977H29.6441L29.6141 26.4922L29.584 26.4895L29.5539 26.484L29.5266 26.4812L29.4965 26.473L29.4691 26.4676L29.4145 26.4512L29.3898 26.4402L29.3625 26.432L29.3379 26.4211L29.3133 26.4074L29.2887 26.3965L29.2395 26.3691L29.2176 26.3555L29.1301 26.2898L29.1109 26.2734L29.0891 26.2543L29.0699 26.2352L29.0508 26.2133L29.0344 26.1941L29.0152 26.1723L28.9988 26.1504L28.9797 26.1285L28.9633 26.1066L28.9469 26.082L28.9332 26.0574L28.9168 26.0328L28.9031 26.0082L28.8895 25.9809L28.8758 25.9562L28.8484 25.9016L28.8375 25.8715L28.8266 25.8441L28.8156 25.8141L28.8047 25.7867L28.7937 25.7566L28.7855 25.7238L28.7746 25.6938L28.7664 25.6637L28.7582 25.6309L28.7527 25.598L28.7445 25.5652L28.7391 25.5324L28.7336 25.4969L28.7254 25.4641L28.7227 25.4285L28.7172 25.3957L28.7145 25.3574L28.709 25.3219L28.7062 25.2863V25.2508L28.7035 25.2125L28.7008 25.177V13.1484L28.7035 13.0965V13.0445L28.7062 12.9953L28.7117 12.9488L28.7145 12.9023L28.7199 12.8559L28.7309 12.7684L28.7555 12.6453L28.7637 12.607L28.7746 12.5687L28.7965 12.4977L28.8074 12.4648L28.8348 12.3992L28.8484 12.3691L28.8813 12.309L28.8949 12.2816L28.9141 12.2543L28.9305 12.227L28.9688 12.1777L29.007 12.134L29.0508 12.0902L29.0945 12.052L29.1191 12.0328L29.193 11.9836L29.2203 11.9699L29.2449 11.9562L29.2723 11.9398L29.3023 11.9289L29.3297 11.9152L29.3898 11.8934L29.4199 11.8852L29.45 11.8742L29.4801 11.866L29.5457 11.8496L29.5785 11.8441L29.6141 11.8387L29.6469 11.8305L29.6824 11.825L29.718 11.8223L29.7535 11.8168L29.7891 11.8141L29.8629 11.8086L29.9422 11.8031L30.0187 11.8004H30.8008V8.30039H21.0008L17.5008 20.0965L14.0008 8.30039H4.20078ZM20.8832 25.1004H21.7008V22.3004L20.8832 25.1004ZM11.9008 25.1004H12.7184L11.9008 22.3004V25.1004Z" fill="white"/>
</svg>
