<svg width="138" height="24" viewBox="0 0 138 24" fill="none" xmlns="http://www.w3.org/2000/svg">
<rect width="24" height="24" rx="8" fill="white"/>
<path d="M6.03437 18.4379L10.8831 18.4379L15.4894 13.8316C16.0115 13.2343 17.5366 11.9137 15.4894 8.98291L6.03437 18.4379Z" fill="#3861FB"/>
<g opacity="0.8">
<path d="M8.43433 12.4115C8.43433 10.5179 9.96935 8.98291 11.8629 8.98291H15.4835C15.491 8.98291 15.4972 8.98905 15.4972 8.99662V11.5201C15.4972 13.4136 13.9622 14.9486 12.0686 14.9486H8.46861C8.44968 14.9486 8.43433 14.9333 8.43433 14.9143V12.4115Z" fill="#3861FB"/>
</g>
<path d="M17.9136 5.51006L13.0649 5.51006L8.4586 10.1164C7.93648 10.7137 6.41138 12.0343 8.4586 14.9651L17.9136 5.51006Z" fill="#3861FB"/>
<path d="M35.3174 18.18C38.8814 18.18 40.3754 16.488 40.3754 14.652C40.3754 12.888 39.1874 11.79 36.7754 11.358L33.8414 10.854C32.4194 10.548 31.8074 10.206 31.8074 9.162C31.8074 8.082 32.6714 7.542 34.8674 7.542C37.3694 7.542 38.2514 8.28 38.2514 9.756V9.99H40.1774V9.882C40.1774 7.524 38.5754 5.76 35.0474 5.76C31.3034 5.76 29.8634 7.524 29.8634 9.27C29.8634 11.25 31.3034 12.186 33.3374 12.546L36.2894 13.032C37.8194 13.32 38.4314 13.716 38.4314 14.76C38.4314 15.894 37.6214 16.398 35.3174 16.398C32.6714 16.398 31.8254 15.678 31.8254 14.238V13.95H29.8814V14.058C29.8814 16.596 31.7174 18.18 35.3174 18.18ZM43.6995 21.06V15.48H43.7715C44.1315 17.118 45.4275 18.18 47.4435 18.18C50.2335 18.18 51.7635 16.308 51.7635 13.536C51.7635 10.764 50.1975 8.874 47.4255 8.874C45.3195 8.874 44.0595 9.882 43.6995 11.538H43.5375V9.054H41.7555V21.06H43.6995ZM43.6995 13.68V13.518C43.6995 11.592 44.8155 10.656 46.8135 10.656C48.6855 10.656 49.8195 11.376 49.8195 13.536C49.8195 15.678 48.7035 16.416 46.7775 16.416C44.8695 16.416 43.6995 15.516 43.6995 13.68ZM57.6829 18.18C60.6709 18.18 62.6689 16.29 62.6689 13.536C62.6689 10.746 60.6709 8.874 57.6829 8.874C54.7129 8.874 52.7149 10.746 52.7149 13.536C52.7149 16.29 54.7129 18.18 57.6829 18.18ZM57.6829 16.452C55.5229 16.452 54.6229 15.426 54.6229 13.536C54.6229 11.628 55.5229 10.584 57.6829 10.584C59.8609 10.584 60.7609 11.628 60.7609 13.536C60.7609 15.426 59.8609 16.452 57.6829 16.452ZM66.0237 18V12.978C66.0237 11.376 66.6537 10.53 68.1837 10.53C69.5157 10.53 70.0557 11.124 70.0557 12.402V13.194H71.9817V12.024C71.9817 10.332 71.0997 8.874 69.0657 8.874C67.2297 8.874 66.2577 10.026 65.9877 11.466H65.8617V9.054H64.0797V18H66.0237ZM79.0707 18V16.254H77.4507C76.3347 16.254 75.8307 15.966 75.8307 14.868V10.674H79.0707V9.054H75.8307V7.092H73.9047V9.054H72.3927V10.674H73.9047V14.976C73.9047 17.154 75.0927 18 77.0187 18H79.0707ZM84.7867 18.18C87.4507 18.18 89.3227 16.866 89.3227 14.958V14.796H87.3787V14.94C87.3787 16.002 86.6047 16.614 84.7327 16.614C82.6627 16.614 81.8167 15.696 81.7447 13.968H89.3407C89.3947 13.698 89.4127 13.446 89.4127 13.122C89.4127 10.404 87.5227 8.874 84.7507 8.874C81.8347 8.874 79.9267 10.746 79.9267 13.536C79.9267 16.524 81.8527 18.18 84.7867 18.18ZM84.7147 10.404C86.6227 10.404 87.5767 11.196 87.5767 12.852V12.888H81.7627C81.8707 11.286 82.7347 10.404 84.7147 10.404ZM92.3447 18L95.2788 14.58H95.4048L98.3748 18H100.733L96.8808 13.536V13.428L100.733 9.054H98.3928L95.4588 12.438H95.3508L92.3808 9.054H90.0228L93.8748 13.464V13.572L90.0228 18H92.3447ZM106.197 18.18C108.879 18.18 110.841 16.668 110.841 14.436V14.238H108.915V14.364C108.915 15.75 107.907 16.434 106.161 16.434C104.145 16.434 103.245 15.462 103.245 13.536C103.245 11.574 104.145 10.62 106.161 10.62C107.907 10.62 108.915 11.304 108.915 12.69V12.798H110.841V12.618C110.841 10.386 108.879 8.874 106.197 8.874C103.245 8.874 101.319 10.746 101.319 13.536C101.319 16.29 103.245 18.18 106.197 18.18ZM114.223 18V5.94H112.279V18H114.223ZM119.749 18.18C122.053 18.18 123.241 16.74 123.529 15.228H123.637V18H125.419V9.054H123.493V13.482C123.493 15.426 122.575 16.434 120.595 16.434C118.705 16.434 117.931 15.588 117.931 13.914V9.054H116.005V14.436C116.005 16.506 117.229 18.18 119.749 18.18ZM128.967 18V15.426H129.093C129.471 17.208 130.785 18.18 132.819 18.18C135.663 18.18 137.193 16.29 137.193 13.536C137.193 10.746 135.681 8.874 132.927 8.874C130.785 8.874 129.597 9.972 129.237 11.484H129.129V5.94H127.185V18H128.967ZM129.129 13.626V13.482C129.129 11.574 130.227 10.638 132.243 10.638C134.151 10.638 135.249 11.376 135.249 13.536C135.249 15.678 134.169 16.398 132.207 16.398C130.281 16.398 129.129 15.498 129.129 13.626Z" fill="white"/>
</svg>
