<svg width="139" height="24" viewBox="0 0 139 24" fill="none" xmlns="http://www.w3.org/2000/svg">
<rect x="0.5" width="24" height="24" rx="8" fill="#3861FB"/>
<path d="M6.53413 18.4379L11.3829 18.4379L15.9892 13.8316C16.5113 13.2343 18.0364 11.9137 15.9892 8.98291L6.53413 18.4379Z" fill="white"/>
<g opacity="0.8">
<path d="M8.93408 12.4115C8.93408 10.5179 10.4691 8.98291 12.3627 8.98291H15.9832C15.9908 8.98291 15.9969 8.98905 15.9969 8.99662V11.5201C15.9969 13.4136 14.4619 14.9486 12.5684 14.9486H8.96837C8.94943 14.9486 8.93408 14.9333 8.93408 14.9143V12.4115Z" fill="white"/>
</g>
<path d="M18.4136 5.51006L13.5649 5.51006L8.9586 10.1164C8.43648 10.7137 6.91138 12.0343 8.9586 14.9651L18.4136 5.51006Z" fill="white"/>
<path d="M35.8174 18.18C39.3814 18.18 40.8754 16.488 40.8754 14.652C40.8754 12.888 39.6874 11.79 37.2754 11.358L34.3414 10.854C32.9194 10.548 32.3074 10.206 32.3074 9.162C32.3074 8.082 33.1714 7.542 35.3674 7.542C37.8694 7.542 38.7514 8.28 38.7514 9.756V9.99H40.6774V9.882C40.6774 7.524 39.0754 5.76 35.5474 5.76C31.8034 5.76 30.3634 7.524 30.3634 9.27C30.3634 11.25 31.8034 12.186 33.8374 12.546L36.7894 13.032C38.3194 13.32 38.9314 13.716 38.9314 14.76C38.9314 15.894 38.1214 16.398 35.8174 16.398C33.1714 16.398 32.3254 15.678 32.3254 14.238V13.95H30.3814V14.058C30.3814 16.596 32.2174 18.18 35.8174 18.18ZM44.1995 21.06V15.48H44.2715C44.6315 17.118 45.9275 18.18 47.9435 18.18C50.7335 18.18 52.2635 16.308 52.2635 13.536C52.2635 10.764 50.6975 8.874 47.9255 8.874C45.8195 8.874 44.5595 9.882 44.1995 11.538H44.0375V9.054H42.2555V21.06H44.1995ZM44.1995 13.68V13.518C44.1995 11.592 45.3155 10.656 47.3135 10.656C49.1855 10.656 50.3195 11.376 50.3195 13.536C50.3195 15.678 49.2035 16.416 47.2775 16.416C45.3695 16.416 44.1995 15.516 44.1995 13.68ZM58.1829 18.18C61.1709 18.18 63.1689 16.29 63.1689 13.536C63.1689 10.746 61.1709 8.874 58.1829 8.874C55.2129 8.874 53.2149 10.746 53.2149 13.536C53.2149 16.29 55.2129 18.18 58.1829 18.18ZM58.1829 16.452C56.0229 16.452 55.1229 15.426 55.1229 13.536C55.1229 11.628 56.0229 10.584 58.1829 10.584C60.3609 10.584 61.2609 11.628 61.2609 13.536C61.2609 15.426 60.3609 16.452 58.1829 16.452ZM66.5237 18V12.978C66.5237 11.376 67.1537 10.53 68.6837 10.53C70.0157 10.53 70.5557 11.124 70.5557 12.402V13.194H72.4817V12.024C72.4817 10.332 71.5997 8.874 69.5657 8.874C67.7297 8.874 66.7577 10.026 66.4877 11.466H66.3617V9.054H64.5797V18H66.5237ZM79.5707 18V16.254H77.9507C76.8347 16.254 76.3307 15.966 76.3307 14.868V10.674H79.5707V9.054H76.3307V7.092H74.4047V9.054H72.8927V10.674H74.4047V14.976C74.4047 17.154 75.5927 18 77.5187 18H79.5707ZM85.2867 18.18C87.9507 18.18 89.8227 16.866 89.8227 14.958V14.796H87.8787V14.94C87.8787 16.002 87.1047 16.614 85.2327 16.614C83.1627 16.614 82.3167 15.696 82.2447 13.968H89.8407C89.8947 13.698 89.9127 13.446 89.9127 13.122C89.9127 10.404 88.0227 8.874 85.2507 8.874C82.3347 8.874 80.4267 10.746 80.4267 13.536C80.4267 16.524 82.3527 18.18 85.2867 18.18ZM85.2147 10.404C87.1227 10.404 88.0767 11.196 88.0767 12.852V12.888H82.2627C82.3707 11.286 83.2347 10.404 85.2147 10.404ZM92.8447 18L95.7788 14.58H95.9048L98.8748 18H101.233L97.3808 13.536V13.428L101.233 9.054H98.8928L95.9588 12.438H95.8508L92.8808 9.054H90.5228L94.3748 13.464V13.572L90.5228 18H92.8447ZM106.697 18.18C109.379 18.18 111.341 16.668 111.341 14.436V14.238H109.415V14.364C109.415 15.75 108.407 16.434 106.661 16.434C104.645 16.434 103.745 15.462 103.745 13.536C103.745 11.574 104.645 10.62 106.661 10.62C108.407 10.62 109.415 11.304 109.415 12.69V12.798H111.341V12.618C111.341 10.386 109.379 8.874 106.697 8.874C103.745 8.874 101.819 10.746 101.819 13.536C101.819 16.29 103.745 18.18 106.697 18.18ZM114.723 18V5.94H112.779V18H114.723ZM120.249 18.18C122.553 18.18 123.741 16.74 124.029 15.228H124.137V18H125.919V9.054H123.993V13.482C123.993 15.426 123.075 16.434 121.095 16.434C119.205 16.434 118.431 15.588 118.431 13.914V9.054H116.505V14.436C116.505 16.506 117.729 18.18 120.249 18.18ZM129.467 18V15.426H129.593C129.971 17.208 131.285 18.18 133.319 18.18C136.163 18.18 137.693 16.29 137.693 13.536C137.693 10.746 136.181 8.874 133.427 8.874C131.285 8.874 130.097 9.972 129.737 11.484H129.629V5.94H127.685V18H129.467ZM129.629 13.626V13.482C129.629 11.574 130.727 10.638 132.743 10.638C134.651 10.638 135.749 11.376 135.749 13.536C135.749 15.678 134.669 16.398 132.707 16.398C130.781 16.398 129.629 15.498 129.629 13.626Z" fill="white"/>
</svg>
