<svg width="53" height="52" viewBox="0 0 53 52" fill="none" xmlns="http://www.w3.org/2000/svg">
<path d="M1.5 24C1.5 11.2975 11.7975 1 24.5 1H28.5C41.2025 1 51.5 11.2975 51.5 24V51H24.5C11.7975 51 1.5 40.7025 1.5 28V24Z" fill="white"/>
<path d="M21.5 34C21.5 32.3431 23.7386 31 26.5 31C29.2614 31 31.5 32.3431 31.5 34" stroke="#0A0A0B" stroke-width="2.37037" stroke-linecap="round" stroke-linejoin="round"/>
<path d="M32.5 28.2495C34.2659 28.7124 35.5 29.7697 35.5 30.9999" stroke="#0A0A0B" stroke-width="2.37037" stroke-linecap="round" stroke-linejoin="round"/>
<path d="M20.5 28.2495C18.7341 28.7124 17.5 29.7697 17.5 30.9999" stroke="#0A0A0B" stroke-width="2.37037" stroke-linecap="round" stroke-linejoin="round"/>
<path d="M26.5 28C28.1569 28 29.5 26.6569 29.5 25C29.5 23.3431 28.1569 22 26.5 22C24.8431 22 23.5 23.3431 23.5 25C23.5 26.6569 24.8431 28 26.5 28Z" stroke="#0A0A0B" stroke-width="2.37037" stroke-linecap="round" stroke-linejoin="round"/>
<path d="M32.5 24.2361C33.1137 23.6868 33.5 22.8885 33.5 22C33.5 20.3431 32.1569 19 30.5 19C29.7316 19 29.0308 19.2889 28.5 19.7639" stroke="#0A0A0B" stroke-width="2.37037" stroke-linecap="round" stroke-linejoin="round"/>
<path d="M20.5 24.2361C19.8863 23.6868 19.5 22.8885 19.5 22C19.5 20.3431 20.8431 19 22.5 19C23.2684 19 23.9692 19.2889 24.5 19.7639" stroke="#0A0A0B" stroke-width="2.37037" stroke-linecap="round" stroke-linejoin="round"/>
<path d="M1.5 24C1.5 11.2975 11.7975 1 24.5 1H28.5C41.2025 1 51.5 11.2975 51.5 24V51H24.5C11.7975 51 1.5 40.7025 1.5 28V24Z" stroke="#0A0A0B" stroke-width="2"/>
</svg>
