<svg width="24" height="24" viewBox="0 0 24 24" fill="none" xmlns="http://www.w3.org/2000/svg">
<path d="M21 11C21.5523 11 22 11.4477 22 12C22 12.5523 21.5523 13 21 13V11ZM3 13C2.44772 13 2 12.5523 2 12C2 11.4477 2.44772 11 3 11L3 13ZM21 13L3 13L3 11L21 11V13Z" fill="white"/>
<path d="M7.29289 6.29289C7.68342 5.90237 8.31658 5.90237 8.70711 6.29289C9.09763 6.68342 9.09763 7.31658 8.70711 7.70711L7.29289 6.29289ZM3 12L2.29289 12.7071C1.90237 12.3166 1.90237 11.6834 2.29289 11.2929L3 12ZM8.70711 16.2929C9.09763 16.6834 9.09763 17.3166 8.70711 17.7071C8.31658 18.0976 7.68342 18.0976 7.29289 17.7071L8.70711 16.2929ZM8.70711 7.70711L3.70711 12.7071L2.29289 11.2929L7.29289 6.29289L8.70711 7.70711ZM3.70711 11.2929L8.70711 16.2929L7.29289 17.7071L2.29289 12.7071L3.70711 11.2929Z" fill="white"/>
</svg>
