<svg width="41" height="40" viewBox="0 0 41 40" fill="none" xmlns="http://www.w3.org/2000/svg">
<g clip-path="url(#clip0_949_1922)">
<path d="M11.2846 22.4026C11.1633 21.518 11.1333 20.604 11.2046 19.6706C11.7006 13.192 17.2019 8.06197 23.6993 8.00063C30.4193 7.9373 36.4913 12.622 37.8333 19.3333C38.7593 23.9626 39.0766 25.824 39.1626 26.6493C39.1933 26.9426 39.0333 27.22 38.7619 27.3333C37.8733 27.704 35.6946 28.6666 33.1666 28.6666C30.1886 28.6666 27.7433 27.6026 27.2553 27.3753" stroke="#3861FB" stroke-width="2" stroke-miterlimit="10"/>
<path d="M23.7273 25.9406L16.4999 21.8686C15.9119 21.5279 15.2286 21.3333 14.4999 21.3333C13.9086 21.3333 13.3473 21.4619 12.8419 21.6919L3.00392 26.1793C2.31325 26.4946 1.83325 27.1913 1.83325 27.9999C1.83325 29.1046 2.72859 29.9999 3.83325 29.9999C8.27792 29.9999 10.3053 28.6779 12.4999 27.2339" stroke="#3861FB" stroke-width="2" stroke-miterlimit="10"/>
<path d="M33.1666 28.6665L27.6046 33.3332C26.5739 34.1672 25.2619 34.6665 23.8332 34.6665C17.1666 34.6665 17.1666 26.6665 9.16658 26.6665C6.60391 26.6665 4.32258 27.8718 2.85791 29.7458" stroke="#3861FB" stroke-width="2" stroke-miterlimit="10"/>
<path d="M23.0998 20.5327C23.0392 20.614 22.9425 20.6667 22.8332 20.6667C22.7785 20.6667 22.7272 20.6533 22.6812 20.63C22.6812 20.63 20.9998 19.68 19.2218 19.1667C17.3798 18.634 15.4998 18.6667 15.4998 18.6667C15.3158 18.6667 15.1665 18.5173 15.1665 18.3333C15.1665 18.3333 15.2478 16.958 15.4998 16C15.7778 14.9447 16.5785 14.1187 16.5785 14.1187C16.6392 14.046 16.7312 14 16.8332 14C16.8332 14 18.8192 14 20.6665 14.5C22.5045 14.9973 24.3085 16.032 24.3085 16.032C24.4218 16.0853 24.4998 16.2 24.4998 16.3333C24.4998 16.3333 24.4772 17.7427 24.1665 18.5973C23.8052 19.5913 23.0998 20.5327 23.0998 20.5327V20.5327Z" stroke="#3861FB" stroke-width="2" stroke-miterlimit="10"/>
<path d="M23.8333 8C21.2219 9.61133 19.8333 12.1153 19.8333 14.3073" stroke="#3861FB" stroke-width="2" stroke-miterlimit="10"/>
<path d="M25.8333 8.14136C29.8333 10.6667 33.1666 17.3334 33.1666 22" stroke="#3861FB" stroke-width="2" stroke-miterlimit="10"/>
<path d="M33.1665 23.3333V24.6666" stroke="#3861FB" stroke-width="2" stroke-miterlimit="10"/>
<path d="M24.688 8.02592L25.1727 5.60125C25.204 5.44792 25.3387 5.33325 25.5 5.33325C25.5187 5.33325 25.5373 5.33459 25.5553 5.33792L29.5553 6.00459C29.7127 6.03059 29.8333 6.16792 29.8333 6.33325C29.8333 6.35592 29.8313 6.37792 29.8267 6.39925L29.29 9.08059" stroke="#3861FB" stroke-width="2" stroke-miterlimit="10"/>
</g>
<defs>
<clipPath id="clip0_949_1922">
<rect width="40" height="40" fill="white" transform="translate(0.5)"/>
</clipPath>
</defs>
</svg>
