<svg width="35" height="35" viewBox="0 0 35 35" fill="none" xmlns="http://www.w3.org/2000/svg">
<path d="M31.0638 4.19054C30.7229 4.20549 30.391 4.30038 30.0918 4.42022C29.7955 4.53926 28.0902 5.26714 25.5718 6.34386C23.0535 7.42057 19.7798 8.82267 16.5347 10.213C10.0445 12.9936 3.66676 15.7296 3.66676 15.7296L3.71325 15.7118C3.71325 15.7118 3.32832 15.8405 2.93805 16.1124C2.74292 16.2484 2.53299 16.4239 2.3611 16.6798C2.18921 16.9357 2.06355 17.2984 2.1109 17.6819C2.27724 19.0293 3.6736 19.4114 3.6736 19.4114L3.67907 19.4142L9.91071 21.547C10.0696 22.077 11.8008 27.8552 12.1816 29.0788C12.3919 29.7553 12.5888 30.1456 12.7941 30.4118C12.8969 30.545 13.0045 30.6481 13.1236 30.7235C13.1709 30.7535 13.2207 30.776 13.2699 30.796C13.2709 30.7965 13.2716 30.7955 13.2726 30.796C13.2787 30.7987 13.2844 30.7989 13.2904 30.8015L13.274 30.7974C13.2854 30.802 13.2967 30.8098 13.3082 30.8138C13.3304 30.8216 13.344 30.8213 13.3724 30.8274C14.0861 31.0766 14.6767 30.6142 14.6767 30.6142L14.7013 30.595L18.5295 27.0444L24.742 31.8884L24.8199 31.9239C25.9073 32.4068 26.8907 32.1374 27.4353 31.6942C27.9799 31.2511 28.1941 30.6798 28.1941 30.6798L28.2173 30.6196L32.7824 6.82647C32.8992 6.29417 32.9158 5.83405 32.8056 5.41827C32.6955 5.00249 32.4278 4.64106 32.092 4.44073C31.7561 4.2404 31.4048 4.17558 31.0638 4.19054ZM31.1007 5.61378C31.2392 5.60737 31.3418 5.62319 31.3742 5.64249C31.4065 5.66178 31.4211 5.65924 31.4521 5.77647C31.4832 5.8937 31.5 6.14062 31.4152 6.52706L31.4125 6.53526L26.8734 30.1903C26.8627 30.2142 26.7681 30.433 26.5521 30.6087C26.3318 30.788 26.0868 30.9279 25.4365 30.6552L18.6429 25.3573L18.4515 25.2069L18.4474 25.211L16.4158 23.6866L27.8332 10.254C27.9209 10.1511 27.9769 10.0249 27.9945 9.89079C28.012 9.75668 27.9904 9.62035 27.9321 9.49829C27.8738 9.37623 27.7814 9.27367 27.6661 9.20301C27.5507 9.13234 27.4174 9.0966 27.2822 9.10011C27.1501 9.10354 27.0216 9.1443 26.9117 9.21768L10.3906 20.2317L4.14938 18.0948C4.14938 18.0948 3.52963 17.75 3.49997 17.5097C3.49832 17.4964 3.491 17.5084 3.52321 17.4605C3.55541 17.4125 3.63636 17.3316 3.73786 17.2608C3.94084 17.1194 4.17262 17.0339 4.17262 17.0339L4.19586 17.0257L4.21911 17.0161C4.21911 17.0161 10.5972 14.28 17.0871 11.4995C20.332 10.1093 23.6051 8.70819 26.1228 7.63175C28.6399 6.55558 30.4587 5.78096 30.6127 5.71905C30.788 5.64884 30.9623 5.62019 31.1007 5.61378ZM23.5293 13.1552L14.8709 23.3421L14.8668 23.3462C14.8532 23.3625 14.8405 23.3794 14.8285 23.3968C14.8147 23.4157 14.802 23.4354 14.7902 23.4556C14.7416 23.5381 14.7104 23.6298 14.6986 23.7249C14.6986 23.7267 14.6986 23.7286 14.6986 23.7304L13.5707 28.8026C13.5519 28.7478 13.5388 28.7278 13.5187 28.6632V28.6618C13.1605 27.5107 11.5271 22.0614 11.3011 21.3077L23.5293 13.1552ZM15.8484 25.0114L17.4043 26.179L15.1183 28.2982L15.8484 25.0114Z" fill="white"/>
</svg>
