<svg width="41" height="40" viewBox="0 0 41 40" fill="none" xmlns="http://www.w3.org/2000/svg">
<g clip-path="url(#clip0_949_1935)">
<path d="M34.4998 18.158V36.6666L35.2352 36.912C35.9905 37.1633 36.4998 37.8706 36.4998 38.6666C36.4998 39.0346 36.2012 39.3333 35.8332 39.3333H32.4998C31.7632 39.3333 31.1665 38.7366 31.1665 38V26.6666" stroke="#3861FB" stroke-width="2" stroke-miterlimit="10"/>
<path d="M31.1668 11.9998C33.0078 11.9998 34.5002 10.3582 34.5002 8.33317C34.5002 6.30813 33.0078 4.6665 31.1668 4.6665C29.3259 4.6665 27.8335 6.30813 27.8335 8.33317C27.8335 10.3582 29.3259 11.9998 31.1668 11.9998Z" stroke="#3861FB" stroke-width="2" stroke-miterlimit="10"/>
<path d="M29.2612 32.1625L27.7212 38.3232C27.5725 38.9172 27.0392 39.3332 26.4272 39.3332H23.1665C22.7985 39.3332 22.4998 39.0345 22.4998 38.6665C22.4998 37.8832 23.0332 37.1998 23.7932 37.0098L24.6665 36.7912L27.8332 24.1265V17.3332H20.4998C19.7632 17.3332 19.1665 16.7365 19.1665 15.9998C19.1665 15.2632 19.7632 14.6665 20.4998 14.6665H33.1665C35.3758 14.6665 37.1665 16.4572 37.1665 18.6665V26.3332C37.1665 27.2538 36.4205 27.9998 35.4998 27.9998H34.4998" stroke="#3861FB" stroke-width="2" stroke-miterlimit="10"/>
<path d="M14.4028 35.3333C14.1301 35.7486 13.8501 36.1579 13.5635 36.5626" stroke="#3861FB" stroke-width="2" stroke-miterlimit="10"/>
<path d="M16.4348 31.8879C16.1281 32.4706 15.8075 33.0453 15.4741 33.6119" stroke="#3861FB" stroke-width="2" stroke-miterlimit="10"/>
<path d="M18.1159 28.2805C17.8659 28.8932 17.6012 29.4979 17.3232 30.0952" stroke="#3861FB" stroke-width="2" stroke-miterlimit="10"/>
<path d="M21.7447 26.0999C21.48 26.9252 21.192 27.7399 20.8813 28.5439" stroke="#3861FB" stroke-width="2" stroke-miterlimit="10"/>
<path d="M23.3178 19.4207C23.0504 21.156 22.6818 22.858 22.2178 24.52" stroke="#3861FB" stroke-width="2" stroke-miterlimit="10"/>
<path d="M7.7977 14.0833C7.7557 14.9279 7.67637 15.7626 7.56104 16.5859" stroke="#3861FB" stroke-width="2" stroke-miterlimit="10"/>
<path d="M7.31007 18.0825C7.23273 18.4785 7.14673 18.8712 7.05273 19.2605" stroke="#3861FB" stroke-width="2" stroke-miterlimit="10"/>
<path d="M20.9058 17.3333C20.5531 20.4713 19.8491 23.5026 18.8345 26.3879" stroke="#3861FB" stroke-width="2" stroke-miterlimit="10"/>
<path d="M2.73193 33.0653C7.56393 27.6453 10.4999 20.4986 10.4999 12.6666V11.9999H6.49993C6.13193 11.9999 5.83327 11.7013 5.83327 11.3333C5.83327 11.1486 5.90793 10.9819 6.02927 10.8613L15.3633 1.52725C15.4839 1.40725 15.6499 1.33325 15.8333 1.33325C16.0166 1.33325 16.1826 1.40725 16.3033 1.52725L25.6373 10.8613C25.7586 10.9819 25.8333 11.1486 25.8333 11.3333C25.8333 11.7013 25.5346 11.9999 25.1666 11.9999H21.1666V12.6666C21.1666 13.3373 21.1506 14.0046 21.1193 14.6679" stroke="#3861FB" stroke-width="2" stroke-miterlimit="10"/>
<path d="M16.4998 4.66675H15.1665V6.00008H16.4998V4.66675Z" fill="#3861FB"/>
<path d="M16.4998 7.33325H15.1665V8.66659H16.4998V7.33325Z" fill="#3861FB"/>
<path d="M16.4998 10H15.1665V11.3333H16.4998V10Z" fill="#3861FB"/>
<path d="M11.1668 26H9.8335V27.3333H11.1668V26Z" fill="#3861FB"/>
<path d="M12.4998 23.3333H11.1665V24.6666H12.4998V23.3333Z" fill="#3861FB"/>
<path d="M9.83333 28.6667H8.5V30.0001H9.83333V28.6667Z" fill="#3861FB"/>
</g>
<defs>
<clipPath id="clip0_949_1935">
<rect width="40" height="40" fill="white" transform="translate(0.5)"/>
</clipPath>
</defs>
</svg>
