<svg width="35" height="30" viewBox="0 0 35 30" fill="none" xmlns="http://www.w3.org/2000/svg">
<path d="M23.9532 0.828125C19.7668 0.828125 16.3625 4.23242 16.3625 8.41875C16.3625 8.67031 16.4254 8.91641 16.45 9.1625C11.2739 8.66758 6.69651 6.17383 3.58753 2.35938C3.4426 2.17617 3.21839 2.07773 2.98323 2.09414C2.75081 2.11055 2.543 2.24453 2.42815 2.44687C1.77464 3.5707 1.40003 4.86406 1.40003 6.25312C1.40003 7.93477 2.00159 9.47422 2.93128 10.7375C2.75081 10.6582 2.55393 10.6145 2.3844 10.5188C2.16839 10.4039 1.90862 10.4094 1.69807 10.5352C1.48753 10.6609 1.35901 10.8879 1.35628 11.1312V11.2188C1.35628 13.7973 2.69065 16.0367 4.6594 17.4094C4.63753 17.4066 4.61565 17.4148 4.59378 17.4094C4.35315 17.3684 4.10979 17.4531 3.94846 17.6363C3.78714 17.8195 3.73518 18.0738 3.80628 18.3062C4.58831 20.7371 6.5844 22.5938 9.05628 23.2719C7.08753 24.4422 4.80432 25.1313 2.34065 25.1313C1.80745 25.1313 1.29612 25.1039 0.787526 25.0437C0.459401 25 0.144948 25.1914 0.0355729 25.5031C-0.0765365 25.8148 0.0465104 26.1621 0.328151 26.3344C3.48635 28.3605 7.23518 29.55 11.2657 29.55C17.7981 29.55 22.9223 26.8211 26.3594 22.9219C29.7965 19.0227 31.5875 13.9586 31.5875 9.22812C31.5875 9.02852 31.5711 8.83437 31.5657 8.6375C32.8481 7.65586 33.9938 6.50469 34.8907 5.15937C35.0684 4.89961 35.0492 4.55234 34.8442 4.31172C34.6418 4.07109 34.3 3.99727 34.0157 4.13125C33.6547 4.29258 33.2336 4.30898 32.8563 4.4375C33.3539 3.77305 33.7805 3.05664 34.0375 2.25C34.125 1.97383 34.0293 1.67031 33.8024 1.48984C33.5754 1.31211 33.2582 1.29023 33.0094 1.44063C31.8145 2.14883 30.491 2.64648 29.0938 2.95C27.7375 1.68125 25.952 0.828125 23.9532 0.828125ZM23.9532 2.22812C25.7387 2.22812 27.352 2.99102 28.4813 4.19687C28.6508 4.37188 28.8996 4.4457 29.1375 4.39375C30.0508 4.21328 30.9176 3.94805 31.7625 3.60625C31.2758 4.2625 30.6742 4.82305 29.9688 5.24687C29.6489 5.40273 29.4985 5.77187 29.616 6.1082C29.7309 6.4418 30.0809 6.63594 30.4282 6.55937C31.1282 6.47461 31.7516 6.19023 32.4188 6.0125C31.8199 6.66055 31.1637 7.2457 30.45 7.7625C30.2559 7.90469 30.1492 8.13438 30.1657 8.375C30.1766 8.65937 30.1875 8.94102 30.1875 9.22812C30.1875 13.6031 28.5086 18.3527 25.3094 21.9812C22.1102 25.6098 17.4125 28.15 11.2657 28.15C8.47385 28.15 5.83792 27.532 3.45628 26.4438C6.4094 26.2168 9.13284 25.1723 11.3313 23.4469C11.561 23.2637 11.6512 22.9574 11.5582 22.6785C11.4653 22.3996 11.2082 22.2082 10.9157 22.2C8.60784 22.159 6.67463 20.8164 5.64378 18.9187C5.68206 18.9187 5.71487 18.9187 5.75315 18.9187C6.44495 18.9187 7.12854 18.8312 7.76565 18.6562C8.0719 18.566 8.28245 18.2816 8.27151 17.9617C8.26057 17.6418 8.03362 17.3684 7.7219 17.3C5.23089 16.7969 3.36331 14.768 2.93128 12.2469C3.63675 12.4902 4.35862 12.6816 5.14065 12.7063C5.46057 12.7254 5.75042 12.5258 5.84885 12.2223C5.94729 11.9187 5.82698 11.5852 5.55628 11.4156C3.89378 10.3027 2.80003 8.40781 2.80003 6.25312C2.80003 5.45469 3.00784 4.72187 3.28128 4.02187C6.78128 7.86367 11.6813 10.4148 17.2157 10.6937C17.4344 10.7047 17.6477 10.6145 17.7899 10.4477C17.9321 10.2781 17.9867 10.0539 17.9375 9.84062C17.8309 9.38672 17.7625 8.90547 17.7625 8.41875C17.7625 4.98984 20.5242 2.22812 23.9532 2.22812Z" fill="#3861FB"/>
</svg>
