<svg width="11" height="9" viewBox="0 0 11 9" fill="none" xmlns="http://www.w3.org/2000/svg">
<path d="M2.20711 3.79289C1.81658 3.40237 1.18342 3.40237 0.792893 3.79289C0.402369 4.18342 0.402369 4.81658 0.792893 5.20711L2.20711 3.79289ZM4.5 7.5L3.79289 8.20711C3.99156 8.40578 4.26464 8.5117 4.54531 8.49897C4.82599 8.48624 5.08835 8.35602 5.26822 8.14018L4.5 7.5ZM10.2682 2.14018C10.6218 1.71591 10.5645 1.08534 10.1402 0.731779C9.71591 0.378215 9.08534 0.435539 8.73178 0.859816L10.2682 2.14018ZM0.792893 5.20711L3.79289 8.20711L5.20711 6.79289L2.20711 3.79289L0.792893 5.20711ZM5.26822 8.14018L10.2682 2.14018L8.73178 0.859816L3.73178 6.85982L5.26822 8.14018Z" fill="#3861FB"/>
</svg>
