<svg width="52" height="52" viewBox="0 0 52 52" fill="none" xmlns="http://www.w3.org/2000/svg">
<path d="M26 35C30.9706 35 35 30.9706 35 26C35 21.0294 30.9706 17 26 17C21.0294 17 17 21.0294 17 26C17 30.9706 21.0294 35 26 35Z" stroke="#3861FB" stroke-width="2.37037" stroke-miterlimit="10" stroke-linecap="round" stroke-linejoin="round"/>
<path d="M17 26H35" stroke="#3861FB" stroke-width="2.37037" stroke-linecap="round" stroke-linejoin="round"/>
<path d="M26 35C27.6569 35 29 30.9706 29 26C29 21.0294 27.6569 17 26 17C24.3431 17 23 21.0294 23 26C23 30.9706 24.3431 35 26 35Z" stroke="#3861FB" stroke-width="2.37037" stroke-miterlimit="10" stroke-linecap="round" stroke-linejoin="round"/>
<path d="M1 24C1 11.2975 11.2975 1 24 1H28C40.7025 1 51 11.2975 51 24V51H24C11.2975 51 1 40.7025 1 28V24Z" stroke="#0A0A0B" stroke-width="2"/>
</svg>
