<svg width="162" height="255" viewBox="0 0 162 255" fill="none" xmlns="http://www.w3.org/2000/svg">
<path fill-rule="evenodd" clip-rule="evenodd" d="M80.5263 40.2632L161.053 185.73L141.88 185.73L161.053 220.365L141.88 220.365L161.053 255L-7.57126e-07 255L19.1729 220.365L-6.35009e-07 220.365L19.1729 185.73L-5.12892e-07 185.73L80.5263 40.2632ZM23.008 185.73L5.69243 217.01L21.0303 217.01L38.3459 185.73L23.008 185.73ZM40.2033 182.375L24.8654 182.375L80.5263 81.826L136.187 182.375L120.849 182.375L80.5263 109.533L40.2033 182.375ZM42.1809 185.73L24.8654 217.01L136.187 217.01L118.872 185.73L42.1809 185.73ZM117.014 182.375L44.0383 182.375L80.5263 116.461L117.014 182.375ZM122.707 185.73L140.022 217.01L155.36 217.01L138.045 185.73L122.707 185.73ZM140.022 182.375L80.5263 74.8982L21.0303 182.375L5.69243 182.375L80.5263 47.191L155.36 182.375L140.022 182.375ZM5.69243 251.645L23.008 220.365L138.045 220.365L155.36 251.645L5.69243 251.645Z" fill="url(#paint0_linear_279_3643)"/>
<path d="M80.5261 7.09805e-08L83.4688 13.0273L94.7613 5.8964L87.6303 17.1889L100.658 20.1316L87.6303 23.0742L94.7613 34.3667L83.4688 27.2358L80.5261 40.2631L77.5834 27.2358L66.2909 34.3667L73.4219 23.0742L60.3945 20.1316L73.4219 17.1889L66.2909 5.8964L77.5834 13.0273L80.5261 7.09805e-08Z" fill="url(#paint1_radial_279_3643)"/>
<defs>
<linearGradient id="paint0_linear_279_3643" x1="80.5263" y1="40.2632" x2="79.6279" y2="312.147" gradientUnits="userSpaceOnUse">
<stop stop-color="white" stop-opacity="0.9"/>
<stop offset="1" stop-color="white" stop-opacity="0"/>
</linearGradient>
<radialGradient id="paint1_radial_279_3643" cx="0" cy="0" r="1" gradientUnits="userSpaceOnUse" gradientTransform="translate(80.5261 20.1316) rotate(90) scale(20.1316)">
<stop stop-color="white"/>
<stop offset="1" stop-color="#C4C4C4" stop-opacity="0"/>
</radialGradient>
</defs>
</svg>
