<svg width="60" height="60" viewBox="0 0 60 60" fill="none" xmlns="http://www.w3.org/2000/svg">
<g filter="url(#filter0_d_402_3397)">
<path d="M4 24C4 10.7452 14.7452 0 28 0H32C45.2548 0 56 10.7452 56 24V52H28C14.7452 52 4 41.2548 4 28V24Z" fill="white" shape-rendering="crispEdges"/>
<path d="M25 34C25 32.3431 27.2386 31 30 31C32.7614 31 35 32.3431 35 34" stroke="#0A0A0B" stroke-width="2.37037" stroke-linecap="round" stroke-linejoin="round"/>
<path d="M36 28.2495C37.7659 28.7124 39 29.7697 39 30.9999" stroke="#0A0A0B" stroke-width="2.37037" stroke-linecap="round" stroke-linejoin="round"/>
<path d="M24 28.2495C22.2341 28.7124 21 29.7697 21 30.9999" stroke="#0A0A0B" stroke-width="2.37037" stroke-linecap="round" stroke-linejoin="round"/>
<path d="M30 28C31.6569 28 33 26.6569 33 25C33 23.3431 31.6569 22 30 22C28.3431 22 27 23.3431 27 25C27 26.6569 28.3431 28 30 28Z" stroke="#0A0A0B" stroke-width="2.37037" stroke-linecap="round" stroke-linejoin="round"/>
<path d="M36 24.2361C36.6137 23.6868 37 22.8885 37 22C37 20.3431 35.6569 19 34 19C33.2316 19 32.5308 19.2889 32 19.7639" stroke="#0A0A0B" stroke-width="2.37037" stroke-linecap="round" stroke-linejoin="round"/>
<path d="M24 24.2361C23.3863 23.6868 23 22.8885 23 22C23 20.3431 24.3431 19 26 19C26.7684 19 27.4692 19.2889 28 19.7639" stroke="#0A0A0B" stroke-width="2.37037" stroke-linecap="round" stroke-linejoin="round"/>
<path d="M28 1H32C44.7025 1 55 11.2975 55 24V51H28C15.2975 51 5 40.7025 5 28V24C5 11.2975 15.2975 1 28 1Z" stroke="#0A0A0B" stroke-width="2" shape-rendering="crispEdges"/>
</g>
<defs>
<filter id="filter0_d_402_3397" x="0" y="0" width="60" height="60" filterUnits="userSpaceOnUse" color-interpolation-filters="sRGB">
<feFlood flood-opacity="0" result="BackgroundImageFix"/>
<feColorMatrix in="SourceAlpha" type="matrix" values="0 0 0 0 0 0 0 0 0 0 0 0 0 0 0 0 0 0 127 0" result="hardAlpha"/>
<feOffset dy="4"/>
<feGaussianBlur stdDeviation="2"/>
<feComposite in2="hardAlpha" operator="out"/>
<feColorMatrix type="matrix" values="0 0 0 0 0 0 0 0 0 0 0 0 0 0 0 0 0 0 0.25 0"/>
<feBlend mode="normal" in2="BackgroundImageFix" result="effect1_dropShadow_402_3397"/>
<feBlend mode="normal" in="SourceGraphic" in2="effect1_dropShadow_402_3397" result="shape"/>
</filter>
</defs>
</svg>
