<svg width="255" height="255" viewBox="0 0 255 255" fill="none" xmlns="http://www.w3.org/2000/svg">
<circle cx="127.5" cy="127.5" r="122.5" stroke="url(#paint0_linear_279_3626)" stroke-width="10"/>
<circle cx="127.5" cy="127.5" r="104.286" stroke="url(#paint1_linear_279_3626)" stroke-width="10" stroke-linejoin="bevel" stroke-dasharray="1 1"/>
<path d="M147.417 151.019C139.169 161.62 132.385 174.067 127.5 187.009C122.615 174.067 115.831 161.62 107.583 151.019C99.2853 140.353 89.336 131.348 78.1487 125.713C89.336 120.078 99.2853 111.073 107.583 100.408C115.831 89.8064 122.615 77.3598 127.5 64.4178C132.385 77.3598 139.169 89.8064 147.417 100.408C155.715 111.073 165.664 120.078 176.851 125.713C165.664 131.348 155.715 140.353 147.417 151.019Z" stroke="url(#paint2_linear_279_3626)" stroke-width="10"/>
<defs>
<linearGradient id="paint0_linear_279_3626" x1="83.6719" y1="1.35071e-06" x2="217.148" y2="262.969" gradientUnits="userSpaceOnUse">
<stop offset="0.0246751" stop-color="white"/>
<stop offset="1" stop-color="white" stop-opacity="0"/>
</linearGradient>
<linearGradient id="paint1_linear_279_3626" x1="89.9331" y1="18.2144" x2="204.342" y2="243.616" gradientUnits="userSpaceOnUse">
<stop offset="0.0246751" stop-color="white"/>
<stop offset="1" stop-color="white" stop-opacity="0"/>
</linearGradient>
<linearGradient id="paint2_linear_279_3626" x1="115.547" y1="61.7578" x2="169.336" y2="203.203" gradientUnits="userSpaceOnUse">
<stop stop-color="white"/>
<stop offset="1" stop-color="white"/>
</linearGradient>
</defs>
</svg>
