<svg width="24" height="24" viewBox="0 0 24 24" fill="none" xmlns="http://www.w3.org/2000/svg">
<rect width="24" height="24" rx="8" fill="white"/>
<path fill-rule="evenodd" clip-rule="evenodd" d="M16.2283 4.98742C15.8212 5.07519 15.3794 5.38465 15.1747 5.7255C14.7982 6.35247 14.8349 7.07542 15.2727 7.65425L15.411 7.8371L15.4432 7.69439C15.4969 7.45605 15.6845 7.24962 15.9635 7.12185L16.1157 7.05222L16.0254 6.94939C15.8832 6.78745 15.8296 6.64096 15.8296 6.41427C15.8296 6.0915 15.9822 5.84065 16.2686 5.69256C16.3871 5.6313 16.4537 5.61725 16.6283 5.61667C16.8124 5.61607 16.8642 5.62782 16.9957 5.69993C17.3004 5.86699 17.4467 6.1357 17.4219 6.48262C17.4072 6.68862 17.3599 6.80296 17.2265 6.95485L17.1401 7.05333L17.2628 7.10879C17.5391 7.23367 17.7998 7.50953 17.7998 7.67702C17.7998 7.77327 17.8363 7.75816 17.934 7.62142C18.2247 7.2147 18.3316 6.67602 18.2134 6.21313C18.0964 5.75467 17.7485 5.32353 17.3386 5.12885C16.9676 4.95267 16.6043 4.90639 16.2283 4.98742ZM6.49369 5.7413C5.88306 5.9647 5.53195 6.62813 5.69677 7.24713C5.74349 7.42262 5.8678 7.65913 5.95772 7.74359L6.02246 7.80442L6.057 7.69976C6.1048 7.55487 6.24026 7.40939 6.40512 7.32585L6.5442 7.25539L6.4674 7.15467C6.35132 7.00247 6.3086 6.80496 6.35395 6.63013C6.43349 6.32342 6.66552 6.15622 6.98352 6.17647C7.19435 6.18987 7.32812 6.26553 7.45023 6.44042C7.519 6.53887 7.52835 6.57876 7.52835 6.77379C7.52835 6.97676 7.52072 7.00616 7.43729 7.1245L7.34623 7.2537L7.49935 7.34013C7.6632 7.43259 7.7904 7.57505 7.82517 7.70502L7.8466 7.78516L7.93655 7.66099C8.12683 7.3983 8.21103 7.00062 8.14432 6.67945C8.06423 6.29393 7.80057 5.96373 7.43575 5.79207C7.26232 5.71047 7.21203 5.70047 6.94263 5.69402C6.7054 5.6883 6.61146 5.69822 6.49369 5.7413ZM16.4756 5.98359C16.2559 6.06379 16.1519 6.23725 16.179 6.47807C16.2247 6.88365 16.7649 7.0151 17.0047 6.67899C17.0566 6.60622 17.0712 6.54802 17.0712 6.41427C17.0712 6.28053 17.0566 6.22233 17.0047 6.14956C16.8859 5.98302 16.6661 5.91407 16.4756 5.98359ZM6.76443 6.47327C6.54632 6.59162 6.54989 6.95696 6.77026 7.07093C7.011 7.19542 7.28549 7.03516 7.28549 6.7701C7.28549 6.51659 6.99237 6.34962 6.76443 6.47327ZM16.2752 7.32896C15.9438 7.41999 15.7048 7.66079 15.7016 7.90702L15.6998 8.04285L15.8569 8.12065C16.0831 8.23267 16.3201 8.2857 16.5945 8.2857C16.8873 8.2857 17.1231 8.22785 17.3806 8.09282L17.5758 7.9905L17.5568 7.8881C17.4905 7.53116 17.0999 7.28213 16.616 7.28825C16.5049 7.28967 16.3516 7.30799 16.2752 7.32896ZM6.62875 7.48453C6.34943 7.58093 6.13203 7.9067 6.27489 8.01479C6.46817 8.16105 6.96489 8.21985 7.26143 8.13156C7.42923 8.08162 7.64255 7.96942 7.63386 7.9357C7.63083 7.92393 7.62835 7.87993 7.62835 7.83796C7.62835 7.78487 7.58946 7.72439 7.50072 7.63933C7.28672 7.4343 6.94835 7.37422 6.62875 7.48453ZM8.19977 8.2857C8.10963 8.37585 8.1284 8.47253 8.26523 8.62265C8.33266 8.69662 8.53986 8.92427 8.72566 9.12856C9.16229 9.60862 9.21503 9.65713 9.30023 9.65713C9.39657 9.65713 9.48549 9.56139 9.48549 9.45762C9.48549 9.38725 9.40032 9.27905 8.99626 8.83619C8.7272 8.54127 8.48689 8.28393 8.46223 8.26427C8.39489 8.21062 8.2642 8.22127 8.19977 8.2857ZM14.1145 8.83193C13.6251 9.37527 13.5972 9.41236 13.6054 9.50959C13.6156 9.63039 13.7173 9.70545 13.8318 9.6767C13.8758 9.66565 14.0944 9.44527 14.4084 9.09545C14.8377 8.6171 14.9141 8.51839 14.9141 8.44185C14.9141 8.32985 14.8381 8.25713 14.721 8.25713C14.642 8.25713 14.5762 8.3195 14.1145 8.83193ZM10.8998 9.4845C10.4188 9.61147 10.1292 9.77813 9.78549 10.1257C9.38672 10.5289 9.18086 10.9523 9.11326 11.5082C9.03595 12.1442 9.2538 12.844 9.675 13.3125L9.81069 13.4634L9.84729 13.2839C9.91446 12.9546 10.1646 12.6729 10.5557 12.4863C10.6551 12.4388 10.7518 12.4 10.7706 12.4C10.7893 12.4 10.7503 12.3389 10.6839 12.2643C10.6175 12.1896 10.5233 12.045 10.4746 11.9428C10.3947 11.7756 10.3859 11.7301 10.3857 11.4857C10.3855 11.24 10.3941 11.1962 10.4759 11.0234C10.5996 10.7624 10.7645 10.5919 11.0109 10.4704C11.2698 10.3427 11.5064 10.3156 11.7705 10.3833C12.221 10.4987 12.5232 10.812 12.6167 11.2607C12.6936 11.6294 12.5873 11.9884 12.3194 12.2643C12.2349 12.3513 12.2038 12.4 12.2327 12.4C12.2575 12.4 12.3686 12.4454 12.4796 12.501C12.8349 12.6787 13.0818 12.9524 13.1581 13.2532L13.1908 13.3818L13.3241 13.2123C13.8112 12.5931 13.944 11.6621 13.6517 10.9143C13.3767 10.2104 12.7662 9.67719 12.0166 9.48616C11.7159 9.4095 11.1868 9.40873 10.8998 9.4845ZM11.2855 10.8644C11.1462 10.9109 10.9259 11.1384 10.888 11.2748C10.8229 11.5095 10.8819 11.7718 11.0373 11.9385C11.275 12.1935 11.7133 12.194 11.9678 11.9395C12.3645 11.5428 12.1109 10.8768 11.5498 10.8414C11.4594 10.8356 11.3405 10.846 11.2855 10.8644ZM11.1734 12.7277C10.7161 12.8138 10.3111 13.1109 10.2164 13.4296C10.1311 13.7168 10.1631 13.776 10.4805 13.9185C10.7827 14.0542 11.0814 14.1139 11.4569 14.1136C11.9266 14.1133 12.2501 14.0291 12.6527 13.8022L12.8341 13.7L12.8179 13.5611C12.751 12.9869 11.9507 12.5814 11.1734 12.7277ZM13.5712 14.0286C13.4815 14.1182 13.5 14.2143 13.6355 14.3634C14.2371 15.0252 15.2232 16.051 15.2894 16.0839C15.3645 16.1213 15.3789 16.1197 15.4501 16.0668C15.5005 16.0293 15.5315 15.9767 15.5373 15.919C15.5469 15.8219 15.5113 15.7811 14.2904 14.4935C13.8684 14.0484 13.7831 13.9714 13.7119 13.9714C13.6659 13.9714 13.6026 13.9971 13.5712 14.0286ZM9.2324 14.3616C9.16983 14.422 8.87335 14.745 8.57352 15.0794C8.0976 15.6102 8.02835 15.6994 8.02835 15.7821C8.02835 15.8984 8.10223 15.9714 8.21983 15.9714C8.29706 15.9714 8.37189 15.899 8.889 15.3234C9.53375 14.6057 9.59977 14.525 9.59977 14.4548C9.59977 14.3836 9.51095 14.2908 9.42295 14.27C9.35983 14.255 9.32583 14.2714 9.2324 14.3616ZM16.4319 15.9308C15.8734 16.081 15.4198 16.5611 15.3001 17.1286C15.2769 17.2386 15.2579 17.3864 15.2579 17.4571C15.2579 17.7807 15.4247 18.2254 15.6389 18.4733L15.73 18.5786L15.7671 18.4336C15.8174 18.2376 15.9826 18.0546 16.2111 17.9422L16.3909 17.8537L16.3133 17.7706C16.0029 17.4384 16.0683 16.8825 16.4471 16.6315C16.7203 16.4506 17.0309 16.4528 17.3058 16.6377C17.4942 16.7643 17.6024 16.9498 17.6204 17.177C17.6387 17.4068 17.5956 17.5637 17.4685 17.7302C17.4128 17.8031 17.3714 17.865 17.3764 17.8676C17.3814 17.8704 17.4461 17.9008 17.5201 17.9354C17.7135 18.0256 17.869 18.178 17.9428 18.3496L18.007 18.4988L18.0903 18.3994C18.1966 18.2725 18.3061 18.0493 18.3583 17.8534C18.4186 17.6267 18.4116 17.2158 18.3437 16.9958C18.1847 16.4812 17.7506 16.063 17.2385 15.931C17.023 15.8754 16.6381 15.8753 16.4319 15.9308ZM6.39509 16.0246C6.188 16.0929 6.07143 16.1662 5.9256 16.3197C5.76937 16.4841 5.69649 16.6121 5.64369 16.8148C5.54966 17.1759 5.63137 17.5558 5.86406 17.8392L5.93146 17.9214L5.96632 17.805C6.00672 17.6702 6.1304 17.5362 6.28952 17.4551L6.40123 17.3981L6.33172 17.3062C6.14686 17.0618 6.17972 16.7524 6.41223 16.5483C6.75955 16.2434 7.31406 16.4946 7.31406 16.9569C7.31406 17.1056 7.2602 17.2538 7.17543 17.3386L7.11749 17.3966L7.24309 17.4574C7.39377 17.5303 7.53869 17.6874 7.5618 17.8029L7.57857 17.8869L7.66366 17.7712C7.90646 17.4411 7.94566 16.9948 7.76589 16.6077C7.6692 16.3996 7.39217 16.1371 7.18549 16.0578C6.949 15.967 6.61217 15.9529 6.39509 16.0246ZM6.55043 16.7579C6.458 16.8503 6.45086 16.8694 6.4642 16.9876C6.4816 17.142 6.5436 17.218 6.68735 17.2611C6.83855 17.3064 6.99726 17.2276 7.05263 17.0798C7.10229 16.9472 7.07817 16.8454 6.97195 16.7392C6.84855 16.6158 6.68529 16.623 6.55043 16.7579ZM16.6566 16.8928C16.5029 16.9975 16.4459 17.096 16.4459 17.2571C16.4459 17.7007 17.0417 17.8488 17.2491 17.4568C17.331 17.3019 17.331 17.2124 17.2491 17.0575C17.1325 16.837 16.8529 16.7593 16.6566 16.8928ZM6.40909 17.6408C6.25672 17.7117 6.18626 17.7898 6.14603 17.9322C6.11269 18.0502 6.13323 18.0837 6.27666 18.1452C6.57589 18.2734 6.95735 18.2645 7.2476 18.1224C7.40197 18.0468 7.40497 18.043 7.38923 17.944C7.36897 17.8166 7.19337 17.6453 7.03912 17.6025C6.8426 17.5479 6.5734 17.5643 6.40909 17.6408ZM16.4527 18.1534C16.158 18.2746 16.0002 18.4562 15.9999 18.6743C15.9998 18.7913 16.0002 18.7917 16.1937 18.8809C16.5653 19.0522 17.0119 19.0658 17.3998 18.9176C17.6628 18.8171 17.7426 18.7562 17.7426 18.6561C17.7426 18.4647 17.5422 18.2467 17.2739 18.1463C17.0417 18.0594 16.6735 18.0626 16.4527 18.1534Z" fill="#3861FB"/>
</svg>
