<svg width="24" height="24" viewBox="0 0 24 24" fill="none" xmlns="http://www.w3.org/2000/svg">
<rect width="24" height="24" rx="8" fill="#3861FB"/>
<path fill-rule="evenodd" clip-rule="evenodd" d="M16.2283 4.98745C15.8212 5.07522 15.3794 5.38468 15.1747 5.72553C14.7982 6.3525 14.8349 7.07545 15.2727 7.65428L15.411 7.83713L15.4432 7.69442C15.4969 7.45608 15.6845 7.24965 15.9635 7.12188L16.1157 7.05225L16.0254 6.94942C15.8832 6.78748 15.8296 6.64099 15.8296 6.4143C15.8296 6.09153 15.9822 5.84068 16.2686 5.69259C16.3871 5.63133 16.4537 5.61728 16.6283 5.6167C16.8124 5.6161 16.8642 5.62785 16.9957 5.69996C17.3004 5.86702 17.4467 6.13573 17.4219 6.48265C17.4072 6.68865 17.3599 6.80299 17.2265 6.95488L17.1401 7.05336L17.2628 7.10882C17.5391 7.2337 17.7998 7.50956 17.7998 7.67705C17.7998 7.7733 17.8363 7.75819 17.934 7.62145C18.2247 7.21473 18.3316 6.67605 18.2134 6.21316C18.0964 5.75471 17.7485 5.32356 17.3386 5.12888C16.9676 4.95271 16.6043 4.90642 16.2283 4.98745ZM6.49369 5.74133C5.88306 5.96473 5.53195 6.62816 5.69677 7.24716C5.74349 7.42265 5.8678 7.65916 5.95772 7.74362L6.02246 7.80445L6.057 7.69979C6.1048 7.5549 6.24026 7.40942 6.40512 7.32588L6.5442 7.25542L6.4674 7.1547C6.35132 7.0025 6.3086 6.80499 6.35395 6.63016C6.43349 6.32345 6.66552 6.15625 6.98352 6.1765C7.19435 6.1899 7.32812 6.26556 7.45023 6.44045C7.519 6.5389 7.52835 6.57879 7.52835 6.77382C7.52835 6.97679 7.52072 7.00619 7.43729 7.12453L7.34623 7.25373L7.49935 7.34016C7.6632 7.43262 7.7904 7.57508 7.82517 7.70505L7.8466 7.78519L7.93655 7.66102C8.12683 7.39833 8.21103 7.00065 8.14432 6.67948C8.06423 6.29396 7.80057 5.96376 7.43575 5.79211C7.26232 5.71051 7.21203 5.7005 6.94263 5.69405C6.7054 5.68833 6.61146 5.69825 6.49369 5.74133ZM16.4756 5.98362C16.2559 6.06382 16.1519 6.23728 16.179 6.4781C16.2247 6.88368 16.7649 7.01513 17.0047 6.67902C17.0566 6.60625 17.0712 6.54805 17.0712 6.4143C17.0712 6.28056 17.0566 6.22236 17.0047 6.14959C16.8859 5.98305 16.6661 5.9141 16.4756 5.98362ZM6.76443 6.4733C6.54632 6.59165 6.54989 6.95699 6.77026 7.07096C7.011 7.19545 7.28549 7.03519 7.28549 6.77013C7.28549 6.51662 6.99237 6.34965 6.76443 6.4733ZM16.2752 7.32899C15.9438 7.42002 15.7048 7.66082 15.7016 7.90705L15.6998 8.04288L15.8569 8.12068C16.0831 8.2327 16.3201 8.28573 16.5945 8.28573C16.8873 8.28573 17.1231 8.22788 17.3806 8.09285L17.5758 7.99053L17.5568 7.88813C17.4905 7.53119 17.0999 7.28216 16.616 7.28828C16.5049 7.2897 16.3516 7.30802 16.2752 7.32899ZM6.62875 7.48456C6.34943 7.58096 6.13203 7.90673 6.27489 8.01482C6.46817 8.16108 6.96489 8.21988 7.26143 8.13159C7.42923 8.08165 7.64255 7.96945 7.63386 7.93573C7.63083 7.92396 7.62835 7.87996 7.62835 7.83799C7.62835 7.7849 7.58946 7.72442 7.50072 7.63936C7.28672 7.43433 6.94835 7.37425 6.62875 7.48456ZM8.19977 8.28573C8.10963 8.37588 8.1284 8.47256 8.26523 8.62268C8.33266 8.69665 8.53986 8.9243 8.72566 9.12859C9.16229 9.60865 9.21503 9.65716 9.30023 9.65716C9.39657 9.65716 9.48549 9.56142 9.48549 9.45765C9.48549 9.38728 9.40032 9.27908 8.99626 8.83622C8.7272 8.5413 8.48689 8.28396 8.46223 8.2643C8.39489 8.21065 8.2642 8.2213 8.19977 8.28573ZM14.1145 8.83196C13.6251 9.3753 13.5972 9.41239 13.6054 9.50962C13.6156 9.63042 13.7173 9.70548 13.8318 9.67673C13.8758 9.66568 14.0944 9.4453 14.4084 9.09548C14.8377 8.61713 14.9141 8.51842 14.9141 8.44188C14.9141 8.32988 14.8381 8.25716 14.721 8.25716C14.642 8.25716 14.5762 8.31953 14.1145 8.83196ZM10.8998 9.48453C10.4188 9.61151 10.1292 9.77816 9.78549 10.1257C9.38672 10.529 9.18086 10.9523 9.11326 11.5083C9.03595 12.1443 9.2538 12.844 9.675 13.3125L9.81069 13.4634L9.84729 13.284C9.91446 12.9546 10.1646 12.673 10.5557 12.4863C10.6551 12.4388 10.7518 12.4 10.7706 12.4C10.7893 12.4 10.7503 12.3389 10.6839 12.2643C10.6175 12.1896 10.5233 12.045 10.4746 11.9429C10.3947 11.7756 10.3859 11.7301 10.3857 11.4857C10.3855 11.24 10.3941 11.1962 10.4759 11.0234C10.5996 10.7624 10.7645 10.592 11.0109 10.4704C11.2698 10.3428 11.5064 10.3156 11.7705 10.3833C12.221 10.4987 12.5232 10.812 12.6167 11.2607C12.6936 11.6294 12.5873 11.9884 12.3194 12.2643C12.2349 12.3513 12.2038 12.4 12.2327 12.4C12.2575 12.4 12.3686 12.4454 12.4796 12.501C12.8349 12.6787 13.0818 12.9524 13.1581 13.2532L13.1908 13.3818L13.3241 13.2123C13.8112 12.5931 13.944 11.6622 13.6517 10.9143C13.3767 10.2104 12.7662 9.67722 12.0166 9.48619C11.7159 9.40953 11.1868 9.40876 10.8998 9.48453ZM11.2855 10.8644C11.1462 10.9109 10.9259 11.1384 10.888 11.2748C10.8229 11.5095 10.8819 11.7718 11.0373 11.9385C11.275 12.1936 11.7133 12.194 11.9678 11.9395C12.3645 11.5429 12.1109 10.8768 11.5498 10.8414C11.4594 10.8357 11.3405 10.846 11.2855 10.8644ZM11.1734 12.7277C10.7161 12.8138 10.3111 13.1109 10.2164 13.4296C10.1311 13.7168 10.1631 13.776 10.4805 13.9186C10.7827 14.0542 11.0814 14.1139 11.4569 14.1137C11.9266 14.1134 12.2501 14.0291 12.6527 13.8023L12.8341 13.7L12.8179 13.5611C12.751 12.987 11.9507 12.5814 11.1734 12.7277ZM13.5712 14.0286C13.4815 14.1183 13.5 14.2144 13.6355 14.3634C14.2371 15.0252 15.2232 16.051 15.2894 16.0839C15.3645 16.1213 15.3789 16.1198 15.4501 16.0668C15.5005 16.0294 15.5315 15.9768 15.5373 15.9191C15.5469 15.8219 15.5113 15.7811 14.2904 14.4936C13.8684 14.0484 13.7831 13.9714 13.7119 13.9714C13.6659 13.9714 13.6026 13.9972 13.5712 14.0286ZM9.2324 14.3616C9.16983 14.422 8.87335 14.745 8.57352 15.0794C8.0976 15.6102 8.02835 15.6995 8.02835 15.7822C8.02835 15.8984 8.10223 15.9714 8.21983 15.9714C8.29706 15.9714 8.37189 15.899 8.889 15.3234C9.53375 14.6058 9.59977 14.525 9.59977 14.4548C9.59977 14.3836 9.51095 14.2908 9.42295 14.27C9.35983 14.2551 9.32583 14.2714 9.2324 14.3616ZM16.4319 15.9308C15.8734 16.081 15.4198 16.5611 15.3001 17.1286C15.2769 17.2386 15.2579 17.3864 15.2579 17.4572C15.2579 17.7808 15.4247 18.2254 15.6389 18.4734L15.73 18.5786L15.7671 18.4336C15.8174 18.2376 15.9826 18.0547 16.2111 17.9422L16.3909 17.8537L16.3133 17.7706C16.0029 17.4384 16.0683 16.8825 16.4471 16.6315C16.7203 16.4506 17.0309 16.4529 17.3058 16.6377C17.4942 16.7644 17.6024 16.9499 17.6204 17.1771C17.6387 17.4068 17.5956 17.5637 17.4685 17.7302C17.4128 17.8031 17.3714 17.865 17.3764 17.8677C17.3814 17.8704 17.4461 17.9008 17.5201 17.9354C17.7135 18.0256 17.869 18.178 17.9428 18.3497L18.007 18.4988L18.0903 18.3994C18.1966 18.2726 18.3061 18.0494 18.3583 17.8534C18.4186 17.6267 18.4116 17.2158 18.3437 16.9959C18.1847 16.4812 17.7506 16.063 17.2385 15.931C17.023 15.8754 16.6381 15.8753 16.4319 15.9308ZM6.39509 16.0246C6.188 16.093 6.07143 16.1662 5.9256 16.3197C5.76937 16.4841 5.69649 16.6121 5.64369 16.8148C5.54966 17.1759 5.63137 17.5559 5.86406 17.8393L5.93146 17.9214L5.96632 17.805C6.00672 17.6702 6.1304 17.5363 6.28952 17.4551L6.40123 17.3981L6.33172 17.3062C6.14686 17.0618 6.17972 16.7525 6.41223 16.5483C6.75955 16.2434 7.31406 16.4946 7.31406 16.9569C7.31406 17.1056 7.2602 17.2539 7.17543 17.3386L7.11749 17.3966L7.24309 17.4574C7.39377 17.5303 7.53869 17.6875 7.5618 17.803L7.57857 17.8869L7.66366 17.7713C7.90646 17.4411 7.94566 16.9948 7.76589 16.6078C7.6692 16.3996 7.39217 16.1371 7.18549 16.0578C6.949 15.9671 6.61217 15.9529 6.39509 16.0246ZM6.55043 16.7579C6.458 16.8504 6.45086 16.8694 6.4642 16.9877C6.4816 17.142 6.5436 17.218 6.68735 17.2611C6.83855 17.3064 6.99726 17.2276 7.05263 17.0798C7.10229 16.9472 7.07817 16.8454 6.97195 16.7392C6.84855 16.6158 6.68529 16.6231 6.55043 16.7579ZM16.6566 16.8929C16.5029 16.9975 16.4459 17.096 16.4459 17.2572C16.4459 17.7007 17.0417 17.8488 17.2491 17.4568C17.331 17.3019 17.331 17.2124 17.2491 17.0575C17.1325 16.837 16.8529 16.7593 16.6566 16.8929ZM6.40909 17.6408C6.25672 17.7118 6.18626 17.7898 6.14603 17.9322C6.11269 18.0502 6.13323 18.0837 6.27666 18.1452C6.57589 18.2735 6.95735 18.2645 7.2476 18.1224C7.40197 18.0468 7.40497 18.043 7.38923 17.944C7.36897 17.8166 7.19337 17.6454 7.03912 17.6025C6.8426 17.548 6.5734 17.5643 6.40909 17.6408ZM16.4527 18.1534C16.158 18.2747 16.0002 18.4562 15.9999 18.6744C15.9998 18.7913 16.0002 18.7917 16.1937 18.8809C16.5653 19.0522 17.0119 19.0658 17.3998 18.9176C17.6628 18.8171 17.7426 18.7563 17.7426 18.6562C17.7426 18.4647 17.5422 18.2467 17.2739 18.1463C17.0417 18.0594 16.6735 18.0626 16.4527 18.1534Z" fill="white"/>
</svg>
