<svg width="52" height="52" viewBox="0 0 52 52" fill="none" xmlns="http://www.w3.org/2000/svg">
<path d="M1 24C1 11.2975 11.2975 1 24 1H28C40.7025 1 51 11.2975 51 24V51H24C11.2975 51 1 40.7025 1 28V24Z" fill="white"/>
<path d="M21 34C21 32.3431 23.2386 31 26 31C28.7614 31 31 32.3431 31 34" stroke="#0A0A0B" stroke-width="2.37037" stroke-linecap="round" stroke-linejoin="round"/>
<path d="M32 28.2495C33.7659 28.7124 35 29.7697 35 30.9999" stroke="#0A0A0B" stroke-width="2.37037" stroke-linecap="round" stroke-linejoin="round"/>
<path d="M20 28.2495C18.2341 28.7124 17 29.7697 17 30.9999" stroke="#0A0A0B" stroke-width="2.37037" stroke-linecap="round" stroke-linejoin="round"/>
<path d="M26 28C27.6569 28 29 26.6569 29 25C29 23.3431 27.6569 22 26 22C24.3431 22 23 23.3431 23 25C23 26.6569 24.3431 28 26 28Z" stroke="#0A0A0B" stroke-width="2.37037" stroke-linecap="round" stroke-linejoin="round"/>
<path d="M32 24.2361C32.6137 23.6868 33 22.8885 33 22C33 20.3431 31.6569 19 30 19C29.2316 19 28.5308 19.2889 28 19.7639" stroke="#0A0A0B" stroke-width="2.37037" stroke-linecap="round" stroke-linejoin="round"/>
<path d="M20 24.2361C19.3863 23.6868 19 22.8885 19 22C19 20.3431 20.3431 19 22 19C22.7684 19 23.4692 19.2889 24 19.7639" stroke="#0A0A0B" stroke-width="2.37037" stroke-linecap="round" stroke-linejoin="round"/>
<path d="M1 24C1 11.2975 11.2975 1 24 1H28C40.7025 1 51 11.2975 51 24V51H24C11.2975 51 1 40.7025 1 28V24Z" stroke="#0A0A0B" stroke-width="2"/>
</svg>
